<svg width="112" height="101" viewBox="0 0 112 101" fill="none" xmlns="http://www.w3.org/2000/svg">
<g clip-path="url(#clip0)">
<path d="M54.0543 101C24.1706 101 0 76.8478 0 47.426H54.0543V101Z" fill="#F4C201"/>
<path d="M54.9333 68.0653C67.0688 68.0653 76.9066 58.235 76.9066 46.1087C76.9066 33.9825 67.0688 24.1522 54.9333 24.1522C42.7977 24.1522 32.96 33.9825 32.96 46.1087C32.96 58.235 42.7977 68.0653 54.9333 68.0653Z" stroke="black" stroke-width="1.27311" stroke-miterlimit="10" stroke-linecap="round"/>
<path d="M54.9336 79.0435C73.1369 79.0435 87.8935 64.2981 87.8935 46.1087C87.8935 27.9194 73.1369 13.174 54.9336 13.174C36.7303 13.174 21.9736 27.9194 21.9736 46.1087C21.9736 64.2981 36.7303 79.0435 54.9336 79.0435Z" stroke="black" stroke-width="1.27311" stroke-miterlimit="10" stroke-linecap="round"/>
<path d="M10.9863 46.1087C10.9863 21.9565 30.7623 2.19568 54.9329 2.19568" stroke="black" stroke-width="1.27311" stroke-miterlimit="10" stroke-linecap="round"/>
<path d="M98.8802 46.1086C98.8802 70.2608 79.1042 90.0217 54.9336 90.0217" stroke="black" stroke-width="1.27311" stroke-miterlimit="10" stroke-linecap="round"/>
<path d="M67.2377 47.4261H54.0537V29.8608" stroke="black" stroke-width="1.27311" stroke-miterlimit="10" stroke-linecap="round"/>
<path d="M92.2881 0V7.90435" stroke="black" stroke-width="1.27311" stroke-miterlimit="10" stroke-linecap="round"/>
<path d="M96.2414 3.95215H88.3311" stroke="black" stroke-width="1.27311" stroke-miterlimit="10" stroke-linecap="round"/>
<path d="M98.4396 39.0826C101.109 39.0826 103.274 36.92 103.274 34.2522C103.274 31.5844 101.109 29.4218 98.4396 29.4218C95.7698 29.4218 93.6055 31.5844 93.6055 34.2522C93.6055 36.92 95.7698 39.0826 98.4396 39.0826Z" fill="#F9A01B"/>
<path d="M107.671 24.1521C109.127 24.1521 110.308 22.9725 110.308 21.5174C110.308 20.0622 109.127 18.8826 107.671 18.8826C106.215 18.8826 105.034 20.0622 105.034 21.5174C105.034 22.9725 106.215 24.1521 107.671 24.1521Z" stroke="black" stroke-width="1.27311" stroke-miterlimit="10" stroke-linecap="round"/>
</g>
<defs>
<clipPath id="clip0">
<rect width="111.185" height="101" fill="white"/>
</clipPath>
</defs>
</svg>
