<svg width="159" height="101" viewBox="0 0 159 101" fill="none" xmlns="http://www.w3.org/2000/svg">
<g clip-path="url(#clip0)">
<path d="M152.189 50.2328H83.5957V65.1958H152.189V50.2328Z" fill="#F9A01B"/>
<path d="M158.084 32.5979H113.069V46.4921H158.084V32.5979Z" fill="#F9A01B"/>
<path d="M25.4683 66.1692C36.2786 66.1692 45.042 57.581 45.042 46.987C45.042 36.3929 36.2786 27.8047 25.4683 27.8047C14.658 27.8047 5.89453 36.3929 5.89453 46.987C5.89453 57.581 14.658 66.1692 25.4683 66.1692Z" fill="#F4C201"/>
<path d="M64.3057 48.0952C64.3057 70.5397 82.5259 88.1746 104.497 88.1746C108.784 88.1746 113.071 87.6402 116.823 86.037L131.828 97.7937V77.4868C139.866 70.0053 144.689 59.8519 144.689 48.0952C144.689 26.1852 126.469 8.01587 104.497 8.01587C82.5259 8.01587 64.3057 26.1852 64.3057 48.0952Z" stroke="black" stroke-width="0.487962" stroke-miterlimit="10"/>
<path d="M64.3057 48.0952C64.3057 70.5397 82.5259 88.1746 104.497 88.1746C108.784 88.1746 113.071 87.6402 116.823 86.037L131.828 97.7937V77.4868C139.866 70.0053 144.689 59.8519 144.689 48.0952C144.689 26.1852 126.469 8.01587 104.497 8.01587C82.5259 8.01587 64.3057 26.1852 64.3057 48.0952Z" stroke="black" stroke-width="1.31739" stroke-miterlimit="10" stroke-linecap="round"/>
<path d="M75.5585 86.5714C71.8073 87.6402 68.0561 88.1746 64.3049 88.1746C60.0178 88.1746 55.7307 87.6402 51.9795 86.037L36.9746 97.2593V76.9524C28.9363 70.0053 24.1133 59.8519 24.1133 48.0952C24.1133 26.1852 42.3335 8.01587 64.3049 8.01587C68.0561 8.01587 71.8073 8.55026 75.5585 9.61904" stroke="black" stroke-width="1.31739" stroke-miterlimit="10" stroke-linecap="round"/>
<path d="M24.1133 0V9.61905" stroke="black" stroke-width="1.31739" stroke-miterlimit="10" stroke-linecap="round"/>
<path d="M28.3992 4.80951H19.2891" stroke="black" stroke-width="1.31739" stroke-miterlimit="10" stroke-linecap="round"/>
<path d="M51.978 31.5292C53.7538 31.5292 55.1933 30.0936 55.1933 28.3228C55.1933 26.552 53.7538 25.1165 51.978 25.1165C50.2022 25.1165 48.7627 26.552 48.7627 28.3228C48.7627 30.0936 50.2022 31.5292 51.978 31.5292Z" stroke="black" stroke-width="1.31739" stroke-miterlimit="10" stroke-linecap="round"/>
</g>
<defs>
<clipPath id="clip0">
<rect width="158.087" height="101" fill="white"/>
</clipPath>
</defs>
</svg>
