<svg width="174" height="63" viewBox="0 0 174 63" fill="none" xmlns="http://www.w3.org/2000/svg">
<path d="M53.3954 7.06021C52.9569 5.75676 52.299 4.67055 51.4219 3.69297C50.5448 2.71538 49.4484 1.95504 48.1327 1.41193C46.817 0.868831 45.1724 0.542969 43.3085 0.542969H31.5769C31.4673 0.542969 31.3576 0.542969 31.3576 0.651589C31.248 0.651589 31.248 0.76021 31.248 0.76021C31.248 0.868831 31.248 0.868831 31.3576 0.977451C31.3576 0.977451 31.4673 1.08607 31.5769 1.08607C31.6866 1.19469 31.9059 1.19469 32.2348 1.30331C32.5637 1.41193 32.783 1.52055 33.1119 1.62918C33.4408 1.84642 33.6601 2.06366 33.8794 2.38952C34.0987 2.71538 34.2083 3.14986 34.2083 3.58435V17.3792C34.2083 17.8137 34.2083 18.1395 34.2083 18.574C34.2083 18.8999 34.0987 19.3343 33.989 19.5516C33.6601 20.0947 33.1119 20.4206 32.5637 20.5292C31.7962 20.7464 30.9191 20.7464 30.1516 20.7464C29.6034 20.7464 23.1346 20.7464 23.1346 20.7464C23.0249 20.7464 22.9153 20.7464 22.9153 20.855L22.8057 20.9637C22.8057 20.9637 22.8057 21.0723 22.9153 21.1809C23.0249 21.2895 23.0249 21.2895 23.1346 21.2895C23.2442 21.2895 23.4635 21.3981 23.7924 21.3981C24.1214 21.5068 24.3406 21.6154 24.6696 21.8326C24.9985 21.9412 25.2178 22.2671 25.437 22.593C25.6563 22.9188 25.766 23.3533 25.766 23.7878V27.9154C25.766 33.455 25.766 43.6654 25.766 43.6654C25.766 43.774 25.8756 43.8826 25.8756 43.8826C25.9852 43.8826 26.0949 43.8826 26.2045 43.774C26.3142 43.5568 26.5335 43.4481 26.7527 43.2309C26.972 43.0136 27.1913 42.7964 27.4106 42.5792C27.6299 42.3619 27.8491 42.1447 28.0684 41.9274C28.2877 41.7102 28.3973 41.6016 28.507 41.493C28.6166 41.3843 28.6166 41.3843 28.6166 41.3843C28.6166 41.3843 28.7263 41.3843 28.7263 41.493C29.0552 41.8188 29.4938 42.0361 29.8227 42.3619C30.1516 42.5792 30.5902 42.7964 31.0287 43.0136C31.4673 43.2309 31.9059 43.3395 32.4541 43.4481C33.0023 43.5568 33.5505 43.5568 34.2083 43.5568C35.4144 43.5568 36.5108 43.3395 37.3879 43.0136C38.265 42.6878 39.0325 42.1447 39.6903 41.3843C40.2385 40.7326 40.7868 39.8637 41.006 38.8861C41.2253 37.9085 41.4446 36.8223 41.4446 35.6274C41.4446 35.193 41.4446 34.6499 41.335 34.1068C41.2253 33.5637 41.1157 33.0205 40.8964 32.4774C40.6771 31.9343 40.4578 31.3912 40.1289 30.9568C39.8 30.4137 39.4711 29.9792 38.9229 29.6533C38.4843 29.2188 37.9361 29.0016 37.2782 28.7843C36.6204 28.5671 35.8529 28.4585 34.9758 28.4585C34.2083 28.4585 33.5505 28.5671 32.8926 28.7843C32.3444 29.0016 31.7962 29.2188 31.4673 29.4361C31.0287 29.6533 30.8094 29.9792 30.4805 30.1964C30.2612 30.4137 30.042 30.6309 29.9323 30.7395C29.9323 30.8481 29.8227 30.8481 29.8227 30.8481C29.8227 30.8481 29.713 30.8481 29.713 30.7395V22.2671H42.7603C44.6242 22.2671 46.2688 21.9412 47.5845 21.3981C49.0098 20.855 50.1062 20.0947 50.9833 19.1171C51.8605 18.1395 52.5183 17.0533 53.0665 15.7499C53.5051 14.4464 53.7244 13.0343 53.7244 11.5137C54.0533 9.6671 53.834 8.36366 53.3954 7.06021ZM29.9323 33.7809C29.9323 33.455 29.9323 33.0205 30.042 32.5861C30.1516 32.1516 30.2612 31.7171 30.4805 31.3912C30.6998 30.9568 31.0287 30.6309 31.4673 30.4137C31.9058 30.0878 32.4541 29.9792 33.2215 29.9792C33.7697 29.9792 34.3179 30.0878 34.6469 30.305C35.0854 30.5223 35.4144 30.8481 35.6336 31.174C35.8529 31.4999 36.0722 31.9343 36.1818 32.4774C36.2915 32.9119 36.4011 33.455 36.5108 33.8895C36.6204 34.324 36.6204 34.7585 36.6204 35.193C36.6204 35.6274 36.6204 35.9533 36.6204 36.1705C36.6204 37.0395 36.5108 37.9085 36.4011 38.6688C36.2915 39.4292 36.0722 40.0809 35.7433 40.624C35.4144 41.1671 35.0854 41.6016 34.6469 41.9274C34.2083 42.2533 33.6601 42.3619 33.0023 42.3619C32.3444 42.3619 31.7962 42.2533 31.4673 41.9274C31.0287 41.6016 30.6998 41.2757 30.4805 40.8412C30.2612 40.4068 30.042 39.9723 30.042 39.4292C29.9323 38.8861 29.9323 38.4516 29.9323 38.0171V33.7809ZM47.8038 15.0981C47.5845 16.293 47.2556 17.2706 46.9266 18.1395C46.4881 19.0085 45.9399 19.6602 45.282 20.0947C44.6242 20.5292 43.8567 20.855 42.8699 20.855C42.1024 20.855 41.5542 20.7464 41.006 20.5292C40.5675 20.3119 40.1289 19.8774 39.8 19.3343C39.4711 18.7912 39.2518 18.1395 39.1421 17.2706C39.0325 16.4016 38.9229 15.424 38.9229 14.2292V2.71538C38.9229 2.38952 39.0325 2.17228 39.2518 1.95504C39.4711 1.7378 39.8 1.7378 40.1289 1.7378H41.6639C41.9928 1.7378 42.2121 1.7378 42.4314 1.7378C42.6506 1.7378 42.8699 1.7378 42.9796 1.7378C43.8567 1.84642 44.6242 2.06366 45.282 2.60676C45.9399 3.04124 46.3784 3.69297 46.817 4.56193C47.2556 5.4309 47.4748 6.40848 47.6941 7.49469C47.9134 8.5809 48.023 9.88435 48.023 11.2964C48.1327 12.7085 48.023 13.9033 47.8038 15.0981Z" fill="#3F4242"/>
<path d="M81.5736 6.95188C82.0121 6.95188 82.4507 7.0605 82.7796 7.16912C83.1085 7.27774 83.3278 7.38637 83.5471 7.60361C83.7664 7.82085 83.876 8.03809 83.9857 8.25533C84.0953 8.47257 84.0953 8.79843 84.0953 9.01568C84.0953 9.55878 83.876 9.88464 83.5471 10.2105C83.2182 10.5364 82.7796 10.645 82.2314 10.645C81.7928 10.645 81.4639 10.5364 81.2446 10.4277C81.0253 10.3191 80.8061 10.1019 80.5868 9.88464C80.3675 9.6674 80.2579 9.55878 80.1482 9.34154C80.0386 9.23292 79.8193 9.1243 79.6 9.1243C79.3807 9.1243 79.2711 9.23292 79.0518 9.34154C78.8325 9.45016 78.6132 9.6674 78.5036 9.99326C78.2843 10.3191 78.1747 10.8622 78.0651 11.4053C77.9554 12.0571 77.8458 12.8174 77.8458 13.795V19.3346C77.8458 19.7691 77.9554 20.095 78.0651 20.3122C78.1747 20.5295 78.394 20.7467 78.6133 20.8553C78.8325 20.964 78.9422 21.0726 79.1615 21.0726C79.3807 21.0726 79.4904 21.1812 79.6 21.1812C79.7097 21.1812 79.7097 21.2898 79.8193 21.2898V21.3984C79.8193 21.3984 79.8193 21.5071 79.7097 21.5071C79.7097 21.5071 79.6 21.6157 79.4904 21.6157H77.7361H77.6265H73.5698H73.3505H71.7059C71.5962 21.6157 71.5962 21.6157 71.4866 21.5071L71.377 21.3984V21.2898C71.377 21.2898 71.4866 21.1812 71.5962 21.1812C71.7059 21.1812 71.8155 21.1812 72.0348 21.0726C72.2541 21.0726 72.3637 20.964 72.583 20.8553C72.8023 20.7467 72.9119 20.5295 73.1312 20.3122C73.2409 20.095 73.3505 19.7691 73.3505 19.3346V10.4277C73.3505 10.3191 73.2409 10.2105 73.1312 10.2105C73.1312 10.2105 73.0216 10.2105 72.9119 10.2105C72.8023 10.2105 72.583 10.1019 72.4734 10.1019C72.3637 9.88464 72.1444 9.88464 72.0348 9.88464C71.9252 9.88464 71.8155 9.88464 71.8155 9.77602C71.7059 9.77602 71.5962 9.6674 71.5962 9.55878C71.5962 9.45016 71.7059 9.34154 71.8155 9.34154C72.2541 9.23292 72.6926 9.1243 73.2409 8.90706C73.7891 8.68981 74.2276 8.58119 74.7758 8.36395C75.324 8.14671 75.7626 7.92947 76.2012 7.71223C76.6397 7.49499 77.0783 7.27774 77.4072 6.95188C77.5168 6.84326 77.6265 6.84326 77.7361 6.84326C77.7361 6.95188 77.7361 6.95188 77.7361 7.16912V9.45016C78.065 8.58119 78.6133 8.03809 79.2711 7.60361C80.0386 7.16912 80.6964 6.95188 81.5736 6.95188Z" fill="#3F4242"/>
<path d="M90.2344 1.62931C90.1248 1.30345 89.9055 1.08621 89.6862 0.760345C89.467 0.543103 89.138 0.325862 88.8091 0.217241C88.4802 0.108621 88.1513 0 87.7127 0C87.3838 0 86.9452 0.108621 86.6163 0.217241C86.2874 0.325862 85.9585 0.543103 85.7392 0.760345C85.5199 0.977586 85.3006 1.30345 85.191 1.62931C85.0813 1.95517 84.9717 2.28103 84.9717 2.6069C84.9717 2.93276 85.0813 3.25862 85.191 3.58448C85.3006 3.91034 85.5199 4.12759 85.7392 4.34483C85.9585 4.56207 86.2874 4.77931 86.6163 4.88793C86.9452 4.99655 87.2741 5.10517 87.7127 5.10517C88.1513 5.10517 88.4802 4.99655 88.8091 4.88793C89.138 4.77931 89.467 4.56207 89.6862 4.34483C89.9055 4.12759 90.1248 3.80172 90.2344 3.47586C90.3441 3.15 90.4537 2.82414 90.4537 2.49828C90.3441 2.28103 90.3441 1.95517 90.2344 1.62931Z" fill="#3F4242"/>
<path d="M92.2082 21.5068C92.2082 21.5068 92.0986 21.3982 91.9889 21.3982C91.8793 21.3982 91.7696 21.3982 91.5504 21.2896C91.3311 21.181 91.1118 21.181 90.8925 20.9637C90.6732 20.8551 90.454 20.6379 90.3443 20.312C90.125 20.0948 90.125 19.6603 90.125 19.2258V7.1689C90.125 7.06028 90.125 6.95166 90.0154 6.95166C89.9057 6.95166 89.7961 6.95166 89.6865 7.06028C89.3575 7.27752 88.919 7.60338 88.4804 7.82063C88.0419 8.03787 87.4937 8.25511 87.0551 8.47235C86.8358 8.58097 86.6165 8.68959 86.2876 8.79821C85.9587 8.90683 85.7394 9.23269 85.7394 9.55856V19.5517C85.7394 19.9861 85.6298 20.312 85.5201 20.6379C85.3009 20.8551 85.1912 21.0723 84.9719 21.2896C84.7527 21.3982 84.5334 21.5068 84.3141 21.6154C84.0948 21.7241 83.9852 21.7241 83.8755 21.7241C83.7659 21.7241 83.7659 21.7241 83.6563 21.8327V21.9413C83.6563 21.9413 83.6562 22.0499 83.7659 22.0499C83.7659 22.0499 83.8755 22.1586 83.9852 22.1586H91.9889C92.0986 22.1586 92.0986 22.1586 92.2082 22.0499L92.3178 21.9413C92.2082 21.6155 92.2082 21.6155 92.2082 21.5068Z" fill="#3F4242"/>
<path d="M70.0607 20.4209C70.1704 20.4209 70.28 20.4209 70.3897 20.5295C70.4993 20.6381 70.4993 20.7468 70.3897 20.8554C70.28 20.964 70.1704 21.0726 70.0607 21.2899C69.9511 21.3985 69.7318 21.6157 69.5125 21.7243C69.2932 21.833 68.9643 21.9416 68.6354 22.0502C68.3065 22.1588 67.8679 22.1588 67.4294 22.1588C66.7715 22.1588 66.2233 22.0502 65.7847 21.7243C65.3462 21.3985 65.0173 21.1812 64.798 20.8554C64.798 20.7468 64.6883 20.7468 64.5787 20.7468C64.4691 20.7468 64.4691 20.7468 64.3594 20.8554C64.3594 20.8554 64.2498 20.964 64.0305 21.0726C63.8112 21.1812 63.5919 21.3985 63.263 21.5071C62.9341 21.7243 62.6052 21.833 62.1666 21.9416C61.728 22.0502 61.1798 22.1588 60.6316 22.1588C59.6449 22.1588 58.8774 22.0502 58.2195 21.7243C57.5617 21.5071 57.0135 21.0726 56.5749 20.6381C56.1364 20.2037 55.9171 19.7692 55.6978 19.2261C55.4785 18.683 55.4785 18.1399 55.4785 17.5968C55.4785 16.7278 55.6978 15.9674 56.246 15.3157C56.6846 14.664 57.3424 14.2295 58.1099 13.9037C58.5485 13.795 58.987 13.5778 59.4256 13.5778C59.8641 13.4692 60.3027 13.4692 60.7413 13.3605C61.1798 13.2519 61.6184 13.1433 62.057 13.0347C62.4955 12.9261 62.9341 12.7088 63.263 12.4916C63.7016 12.2743 63.9208 11.8399 64.1401 11.4054C64.3594 10.9709 64.3594 10.5364 64.3594 10.1019C64.3594 9.77606 64.3594 9.4502 64.2498 9.12434C64.1401 8.79848 64.0305 8.58124 63.8112 8.25537C63.5919 7.92951 63.4823 8.14675 63.263 8.03813C63.0437 7.92951 62.8244 7.82089 62.4955 7.82089C62.057 7.82089 61.728 7.92951 61.5088 8.14675C61.2895 8.364 61.0702 8.68986 60.9606 9.01572C60.8509 9.34158 60.7413 9.66744 60.6316 10.1019C60.522 10.4278 60.4123 10.7537 60.1931 10.9709C59.9738 11.1881 59.7545 11.2968 59.4256 11.4054C59.0967 11.514 58.7677 11.514 58.5485 11.514C58.2195 11.514 58.0003 11.514 57.781 11.4054C57.5617 11.2968 57.3424 11.1881 57.2328 10.9709C57.1231 10.7537 56.9038 10.645 56.9038 10.4278C56.7942 10.2105 56.7942 9.9933 56.7942 9.77606C56.7942 9.4502 56.9038 9.12434 57.0135 8.79848C57.1231 8.47262 57.452 8.14675 57.8906 7.92951C58.3292 7.71227 58.8774 7.49503 59.5352 7.27779C60.1931 7.06055 61.1798 7.06055 62.2762 7.06055C63.4823 7.06055 64.4691 7.16917 65.3462 7.38641C66.3329 7.71227 67.4294 8.25537 68.0872 9.12434C68.8547 10.1019 68.8547 11.2968 68.8547 12.4916C68.8547 12.7088 68.8547 12.9261 68.8547 13.1433C68.8547 14.2295 68.8547 17.1623 68.8547 17.9226C68.8547 18.5743 68.8547 19.2261 68.8547 19.6605C68.8547 20.095 69.074 20.4209 69.2932 20.5295C69.4029 20.5295 69.5125 20.6381 69.7318 20.6381C69.6222 20.4209 69.8415 20.4209 70.0607 20.4209ZM64.3594 13.2519C64.3594 13.1433 64.3594 13.1433 64.2498 13.1433H64.1401C64.0305 13.2519 63.9209 13.3605 63.9209 13.4692C63.8112 13.5778 63.7016 13.6864 63.5919 13.795C63.3726 14.0123 63.1534 14.2295 62.9341 14.4468C62.7148 14.664 62.4955 14.7726 62.2762 14.9899C62.057 15.2071 61.8377 15.3157 61.6184 15.533C61.3991 15.7502 61.1798 15.8588 61.0702 16.0761C60.7413 16.4019 60.6316 16.7278 60.4123 17.1623C60.3027 17.5968 60.1931 17.9226 60.1931 18.3571C60.1931 18.683 60.1931 18.9002 60.3027 19.2261C60.4123 19.5519 60.522 19.7692 60.7413 19.9864C60.9606 20.2037 61.1798 20.4209 61.3991 20.5295C61.728 20.6381 62.057 20.7468 62.3859 20.7468C62.8244 20.7468 63.0437 20.6381 63.3726 20.5295C63.5919 20.4209 63.8112 20.2037 63.9209 19.9864C64.0305 19.7692 64.1401 19.5519 64.2498 19.3347C64.2498 19.1174 64.3594 18.9002 64.3594 18.7916V13.2519Z" fill="#3F4242"/>
<path d="M107.339 20.4209C107.449 20.4209 107.558 20.4209 107.668 20.5295C107.778 20.6381 107.778 20.7468 107.668 20.8554C107.558 20.964 107.449 21.0726 107.339 21.2899C107.229 21.3985 107.01 21.6157 106.791 21.7243C106.572 21.833 106.243 21.9416 105.914 22.0502C105.585 22.1588 105.146 22.1588 104.708 22.1588C104.05 22.1588 103.502 22.0502 103.063 21.7243C102.625 21.3985 102.296 21.1812 102.076 20.8554C102.076 20.7468 101.967 20.7468 101.857 20.7468C101.747 20.7468 101.747 20.7468 101.638 20.8554C101.638 20.8554 101.528 20.964 101.309 21.0726C101.09 21.1812 100.87 21.3985 100.541 21.5071C100.212 21.7243 99.8835 21.833 99.4449 21.9416C99.0064 22.0502 98.4582 22.1588 97.91 22.1588C96.9232 22.1588 96.1557 22.0502 95.4979 21.7243C94.84 21.5071 94.2918 21.0726 93.8532 20.6381C93.4147 20.2037 93.1954 19.7692 92.9761 19.2261C92.7568 18.683 92.7568 18.1399 92.7568 17.5968C92.7568 16.7278 92.9761 15.9674 93.5243 15.3157C93.9629 14.664 94.6207 14.2295 95.3882 13.9037C95.8268 13.795 96.2654 13.5778 96.7039 13.5778C97.1425 13.4692 97.581 13.4692 98.0196 13.3605C98.4582 13.2519 98.8967 13.1433 99.3353 13.0347C99.7739 12.9261 100.212 12.7088 100.541 12.4916C100.98 12.2743 101.199 11.8399 101.418 11.4054C101.638 10.9709 101.638 10.5364 101.638 10.1019C101.638 9.77606 101.638 9.4502 101.528 9.12434C101.418 8.79848 101.309 8.58124 101.09 8.25537C100.87 7.92951 100.761 7.82089 100.541 7.71227C100.322 7.60365 100.103 7.49503 99.7739 7.49503C99.3353 7.49503 99.0064 7.60365 98.7871 7.82089C98.5678 8.03813 98.3485 8.364 98.2389 8.68986C98.1292 9.01572 98.0196 9.34158 97.91 9.77606C97.91 10.4278 97.6907 10.7537 97.4714 10.9709C97.2521 11.1881 97.0328 11.2968 96.7039 11.4054C96.375 11.514 96.0461 11.514 95.8268 11.514C95.4979 11.514 95.2786 11.514 95.0593 11.4054C94.84 11.2968 94.6207 11.1881 94.5111 10.9709C94.4015 10.7537 94.1822 10.645 94.1822 10.4278C94.0725 10.2105 94.0725 9.9933 94.0725 9.77606C94.0725 9.4502 94.1822 9.12434 94.2918 8.79848C94.4015 8.47262 94.7304 8.14675 95.1689 7.92951C95.6075 7.71227 96.1557 7.49503 96.8136 7.27779C97.4714 7.06055 98.4582 7.06055 99.5546 7.06055C100.761 7.06055 101.747 7.16917 102.625 7.38641C103.611 7.71227 104.708 8.25537 105.366 9.12434C106.133 10.1019 106.133 11.2968 106.133 12.4916C106.133 12.7088 106.133 12.9261 106.133 13.1433C106.133 14.2295 106.133 17.1623 106.133 17.9226C106.133 18.5743 106.133 19.2261 106.133 19.6605C106.133 20.095 106.352 20.4209 106.572 20.5295C106.681 20.5295 106.791 20.6381 107.01 20.6381C107.01 20.4209 107.12 20.4209 107.339 20.4209ZM101.638 13.2519C101.638 13.1433 101.638 13.1433 101.528 13.1433H101.418C101.309 13.2519 101.199 13.3605 101.199 13.4692C101.09 13.5778 100.98 13.6864 100.87 13.795C100.651 14.0123 100.432 14.2295 100.212 14.4468C99.9931 14.664 99.7739 14.7726 99.5546 14.9899C99.3353 15.2071 99.116 15.3157 98.8967 15.533C98.6775 15.7502 98.4582 15.8588 98.3485 16.0761C98.0196 16.4019 97.91 16.7278 97.6907 17.1623C97.581 17.5968 97.4714 17.9226 97.4714 18.3571C97.4714 18.683 97.4714 18.9002 97.581 19.2261C97.6907 19.5519 97.8003 19.7692 98.0196 19.9864C98.2389 20.2037 98.4582 20.4209 98.6774 20.5295C99.0064 20.6381 99.3353 20.7468 99.6642 20.7468C100.103 20.7468 100.322 20.6381 100.651 20.5295C100.87 20.4209 101.09 20.2037 101.199 19.9864C101.309 19.7692 101.418 19.5519 101.528 19.3347C101.528 19.1174 101.638 18.9002 101.638 18.7916V13.2519Z" fill="#3F4242"/>
<path d="M23.6824 42.688C23.6824 42.688 23.5728 42.5794 23.4631 42.5794C23.1342 42.4708 22.8053 42.4708 22.586 42.2535C22.2571 42.1449 22.0378 41.9277 21.7089 41.7104C21.4896 41.4932 21.1607 41.1673 20.9414 40.8415C20.7221 40.5156 20.5028 40.0811 20.3932 39.6466C20.2836 39.4294 20.1739 38.9949 19.9546 38.3432C19.7353 37.6915 19.5161 36.9311 19.1871 36.0621C18.8582 35.1932 18.5293 34.2156 18.2004 33.1294C17.8715 32.0432 17.4329 30.957 17.104 29.8708C16.775 28.7846 16.3365 27.6983 16.0076 26.7208C15.6786 25.7432 15.3497 24.7656 15.0208 24.0052C14.6919 23.2449 14.4726 22.5932 14.3629 22.0501C14.1437 21.507 14.1437 21.1811 14.1437 21.1811C14.034 21.0725 14.034 20.9639 13.9244 20.9639C13.8147 20.9639 13.7051 20.9639 13.4858 21.0725C13.2665 21.1811 12.9376 21.2897 12.6087 21.3983C12.2798 21.507 11.9508 21.6156 11.6219 21.7242C11.293 21.8328 10.9641 21.8328 10.6352 21.9415C10.3062 22.0501 10.087 22.0501 9.75803 22.1587C9.64839 22.1587 9.53875 22.2673 9.42911 22.2673C9.31947 22.3759 9.31947 22.3759 9.20983 22.4846C9.20983 22.4846 9.10019 22.8104 8.88091 23.2449C8.88091 23.6794 8.66162 24.3311 8.3327 25.0915C8.00378 25.8518 7.67486 26.8294 7.34594 27.807C7.01701 28.7846 6.57845 29.8708 6.24953 30.957C5.9206 32.0432 5.48204 33.1294 5.15312 34.2156C4.8242 35.3018 4.38563 36.2794 4.16635 37.1483C3.83743 38.0173 3.61815 38.7777 3.39887 39.3208C3.17958 39.9725 3.06994 40.2983 2.9603 40.407C2.85066 40.7328 2.63138 40.9501 2.52174 41.2759C2.30246 41.4932 2.08318 41.7104 1.86389 41.819C1.64461 42.0363 1.42533 42.1449 1.09641 42.2535C0.877127 42.3621 0.548204 42.4708 0.219282 42.4708C0.109641 42.4708 0.109641 42.5794 0 42.5794C0 42.688 0 42.688 0 42.7966C0 42.9052 0 42.9053 0.109641 42.9053C0.109641 42.9053 0.219282 43.0139 0.328922 43.0139H6.35917C6.46881 43.0139 6.46881 43.0139 6.57845 42.9053C6.46881 42.9053 6.46881 42.9053 6.46881 42.9053C6.46881 42.7966 6.46881 42.7966 6.46881 42.688C6.46881 42.5794 6.35917 42.5794 6.24953 42.5794C6.13989 42.5794 5.9206 42.4708 5.59168 42.4708C5.3724 42.3621 5.15312 42.2535 4.93384 42.1449C4.71456 42.0363 4.49527 41.819 4.38563 41.6018C4.27599 41.2759 4.27599 40.9501 4.38563 40.5156C4.38563 40.407 4.49527 40.2984 4.49527 39.9725C4.60491 39.7552 4.71456 39.4294 4.8242 39.1035C4.93384 38.7777 5.04348 38.3432 5.15312 38.0173C5.26276 37.5828 5.3724 37.257 5.48204 36.8225C5.59168 36.4966 5.70132 36.1708 5.81096 35.8449C5.9206 35.519 5.9206 35.3018 6.03025 35.1932C6.03025 35.0846 6.13989 35.0846 6.24953 35.0846H13.2665C13.3762 35.0846 13.3762 35.0846 13.4858 35.1932C13.4858 35.1932 13.5955 35.4104 13.5955 35.519C13.7051 35.7363 13.8147 35.9535 13.8147 36.2794C13.9244 36.6052 14.034 36.9311 14.1437 37.257C14.2533 37.5828 14.3629 37.9087 14.4726 38.2346C14.5822 38.5604 14.6919 38.8863 14.8015 39.1035C14.9112 39.4294 14.9112 39.538 15.0208 39.7552C15.2401 40.2984 15.2401 40.6242 15.0208 41.0587C14.9112 41.3846 14.6919 41.6018 14.4726 41.819C14.2533 42.0363 13.9244 42.1449 13.7051 42.2535C13.3762 42.3621 13.2665 42.3621 13.1569 42.4708C13.0473 42.4708 12.9376 42.5794 12.9376 42.5794C12.9376 42.688 12.9376 42.688 12.9376 42.7966C12.9376 42.9052 12.9376 42.9053 13.0473 42.9053C13.0473 42.9053 13.1569 43.0139 13.2665 43.0139H23.4631C23.5728 43.0139 23.6824 43.0139 23.6824 42.9053C23.6824 42.9053 23.7921 42.7966 23.7921 42.688C23.6824 42.7966 23.6824 42.688 23.6824 42.688ZM12.828 34.107H6.57845C6.46881 34.107 6.46881 33.9984 6.46881 33.8897C6.57845 33.5639 6.79773 33.0208 6.90737 32.4777C7.12665 31.8259 7.34594 31.1742 7.56522 30.5225C7.7845 29.8708 8.00378 29.219 8.22306 28.4587C8.44234 27.807 8.66162 27.1552 8.88091 26.6121C9.10019 26.069 9.20983 25.6346 9.31947 25.2001C9.42911 24.8742 9.53875 24.657 9.53875 24.657C9.53875 24.5484 9.64839 24.5483 9.64839 24.5483C9.75803 24.5483 9.75803 24.5484 9.75803 24.657C9.75803 24.657 9.75803 24.7656 9.86767 25.0915C9.97731 25.3087 10.087 25.7432 10.1966 26.1777C10.3062 26.6121 10.5255 27.0466 10.7448 27.5897C10.9641 28.1328 11.0737 28.6759 11.293 29.219C11.5123 29.7621 11.6219 30.3052 11.8412 30.8483C12.0605 31.3915 12.1701 31.9346 12.3894 32.369C12.4991 32.8035 12.7183 33.1294 12.7183 33.4552C12.828 33.7811 12.828 33.8897 12.828 33.8897C13.0473 33.9984 12.9376 34.107 12.828 34.107Z" fill="#3F4242"/>
<path d="M55.4777 29.4363C55.3681 29.219 55.2584 29.0018 55.0392 28.7845C54.8199 28.5673 54.6006 28.4587 54.2717 28.3501C53.9428 28.2414 53.6138 28.1328 53.0656 28.1328C52.2981 28.1328 51.5307 28.3501 50.8728 28.7845C50.215 29.219 49.6668 29.7621 49.3378 30.6311V28.3501C49.3378 28.2414 49.2282 28.1328 49.2282 28.1328C49.1186 28.1328 49.0089 28.1328 48.8993 28.2414C48.5704 28.4587 48.1318 28.6759 47.6932 29.0018C47.2547 29.219 46.7065 29.4363 46.2679 29.6535C45.7197 29.8707 45.2811 30.088 44.7329 30.1966C44.2944 30.4138 43.7462 30.5225 43.3076 30.6311C43.0883 30.6311 43.0883 30.7397 43.0883 30.8483C43.0883 30.957 43.198 31.0656 43.3076 31.0656C43.3076 31.0656 43.4172 31.0656 43.5269 31.1742C43.6365 31.1742 43.8558 31.2828 43.9654 31.2828C44.1847 31.2828 44.2944 31.3914 44.404 31.3914C44.5137 31.3914 44.6233 31.3914 44.6233 31.3914C44.7329 31.3914 44.8426 31.5001 44.8426 31.6087V40.7328C44.8426 41.1673 44.7329 41.4932 44.6233 41.7104C44.5137 41.9276 44.2944 42.1449 44.0751 42.2535C43.8558 42.3621 43.7462 42.4707 43.5269 42.4707C43.3076 42.4707 43.198 42.5794 43.0883 42.5794C42.9787 42.5794 42.9787 42.688 42.869 42.688C42.869 42.688 42.7594 42.7966 42.869 42.7966C42.869 42.9052 42.869 42.9052 42.9787 42.9052C42.9787 42.9052 43.0883 43.0138 43.198 43.0138H50.8728C50.9825 43.0138 50.9825 43.0139 51.0921 42.9052L51.2017 42.7966C51.2017 42.688 51.2017 42.688 51.2017 42.688C51.2017 42.688 51.0921 42.5794 50.9825 42.5794C50.8728 42.5794 50.7632 42.5794 50.5439 42.4707C50.3246 42.4707 50.215 42.3621 49.9957 42.2535C49.7764 42.1449 49.6668 41.9276 49.4475 41.7104C49.3378 41.4932 49.2282 41.1673 49.2282 40.7328V35.1932C49.2282 34.2156 49.3378 33.4552 49.4475 32.8035C49.5571 32.1518 49.6668 31.7173 49.886 31.3914C50.1053 31.0656 50.215 30.8483 50.4343 30.7397C50.6535 30.6311 50.8728 30.5225 50.9825 30.5225C51.2017 30.5225 51.3114 30.6311 51.5307 30.7397C51.6403 30.8483 51.8596 31.0656 51.9692 31.2828C52.1885 31.5001 52.2981 31.6087 52.6271 31.7173C52.8464 31.8259 53.1753 31.9345 53.6138 31.9345C54.162 31.9345 54.6006 31.8259 54.9295 31.5001C55.2585 31.1742 55.4777 30.8483 55.4777 30.3052C55.5874 29.9794 55.4777 29.6535 55.4777 29.4363Z" fill="#3F4242"/>
<path d="M98.2386 42.688C98.2386 42.688 98.1289 42.5794 98.0193 42.5794C97.9097 42.5794 97.8 42.5794 97.5807 42.4707C97.3614 42.4707 97.2518 42.3621 97.0325 42.2535C96.8132 42.1449 96.7036 41.9276 96.4843 41.7104C96.4843 41.3845 96.3747 41.0587 96.3747 40.6242V34.2156C96.3747 33.7811 96.3747 33.4552 96.3747 32.9121C96.3747 32.4776 96.265 32.0432 96.265 31.6087C96.1554 31.1742 96.0458 30.7397 95.8265 30.3052C95.6072 29.8707 95.3879 29.5449 94.9494 29.219C94.6204 28.8932 94.0722 28.6759 93.524 28.4587C92.9758 28.2414 92.2083 28.1328 91.3312 28.1328C90.783 28.1328 90.2348 28.2414 89.6866 28.3501C89.248 28.4587 88.6998 28.5673 88.3709 28.7845C87.9323 29.0018 87.6034 29.219 87.2745 29.4363C86.9456 29.6535 86.7263 29.8707 86.3974 30.1966C86.2877 29.8707 86.0685 29.6535 85.7395 29.4363C85.5202 29.219 85.1913 29.0018 84.8624 28.7845C84.5335 28.5673 84.0949 28.4587 83.6564 28.3501C83.2178 28.2414 82.6696 28.2414 82.0117 28.2414C81.025 28.2414 80.2575 28.3501 79.5996 28.6759C78.9418 28.8932 78.284 29.219 77.8454 29.6535V28.4587C77.8454 28.3501 77.8454 28.2414 77.7358 28.2414C77.6261 28.2414 77.5165 28.2414 77.4068 28.3501C77.0779 28.5673 76.6393 28.7845 76.2008 29.1104C75.7622 29.3276 75.214 29.5449 74.7755 29.7621C74.2272 29.9794 73.7887 30.1966 73.2405 30.3052C72.8019 30.5225 72.2537 30.6311 71.8151 30.7397C71.5959 30.7397 71.5959 30.8483 71.5959 30.957C71.5959 31.0656 71.7055 31.1742 71.8151 31.1742C71.8151 31.1742 71.9248 31.1742 72.0344 31.2828C72.1441 31.2828 72.3633 31.3914 72.473 31.3914C72.6923 31.3914 72.8019 31.5001 72.9116 31.5001C73.0212 31.5001 73.1308 31.5001 73.1308 31.5001C73.2405 31.5001 73.3501 31.6087 73.3501 31.7173V40.8414C73.3501 41.2759 73.2405 41.6018 73.1308 41.819C73.0212 42.0363 72.8019 42.2535 72.5826 42.3621C72.473 42.3621 72.2537 42.4707 72.1441 42.4707C71.9248 42.4707 71.8151 42.5794 71.7055 42.5794C71.5959 42.5794 71.5959 42.688 71.4862 42.688C71.4862 42.688 71.3766 42.7966 71.4862 42.7966C71.4862 42.9052 71.4862 42.9052 71.5959 42.9052C71.5959 42.9052 71.7055 43.0138 71.8151 43.0138H79.49C79.5996 43.0138 79.5996 43.0139 79.7093 42.9052L79.8189 42.7966C79.8189 42.688 79.8189 42.688 79.8189 42.688C79.8189 42.688 79.7093 42.5794 79.5996 42.5794C79.49 42.5794 79.3804 42.5794 79.1611 42.4707C78.9418 42.4707 78.8322 42.3621 78.6129 42.2535C78.3936 42.1449 78.284 41.9276 78.0647 41.7104C77.955 41.4932 77.8454 41.1673 77.8454 40.7328V32.2604C77.8454 31.9345 77.8454 31.6087 77.955 31.2828C78.0647 30.957 78.1743 30.6311 78.284 30.4138C78.5032 30.1966 78.7225 29.9794 78.9418 29.7621C79.2707 29.5449 79.5996 29.5449 80.1478 29.5449C80.696 29.5449 81.1346 29.6535 81.4635 29.8707C81.7925 30.088 82.0117 30.4138 82.231 30.7397C82.4503 31.0656 82.5599 31.5001 82.5599 31.9345C82.6696 32.369 82.6696 32.8035 82.6696 33.238V40.7328C82.6696 41.1673 82.5599 41.4932 82.4503 41.7104C82.3407 41.9276 82.1214 42.1449 81.9021 42.2535C81.6828 42.3621 81.5732 42.4707 81.3539 42.4707C81.1346 42.4707 81.025 42.5794 80.9153 42.5794C80.8057 42.5794 80.8057 42.688 80.696 42.688C80.696 42.688 80.5864 42.7966 80.696 42.7966C80.696 42.9052 80.6961 42.9052 80.8057 42.9052C80.8057 42.9052 80.9153 43.0138 81.025 43.0138H88.6998C88.8095 43.0138 88.8095 43.0139 88.9191 42.9052L89.0288 42.7966C89.0288 42.688 89.0288 42.688 89.0288 42.688C89.0288 42.688 88.9191 42.5794 88.8095 42.5794C88.6998 42.5794 88.5902 42.5794 88.3709 42.4707C88.1516 42.4707 88.042 42.3621 87.8227 42.2535C87.6034 42.1449 87.4938 41.9276 87.2745 41.7104C87.1649 41.4932 87.0552 41.1673 87.0552 40.7328V32.2604C87.0552 31.9345 87.0552 31.6087 87.1649 31.2828C87.2745 30.957 87.3841 30.7397 87.4938 30.4138C87.6034 30.1966 87.9323 29.9794 88.1516 29.7621C88.4805 29.5449 88.8095 29.5449 89.3577 29.5449C89.9059 29.5449 90.3444 29.6535 90.6734 29.8707C91.0023 30.088 91.2216 30.4138 91.4408 30.7397C91.6601 31.0656 91.7698 31.5001 91.7698 31.9345C91.8794 32.369 91.8794 32.8035 91.8794 33.238V40.7328C91.8794 41.1673 91.7698 41.4932 91.6601 41.7104C91.5505 41.9276 91.3312 42.1449 91.1119 42.2535C91.1119 42.3621 90.8926 42.4707 90.6734 42.4707C90.4541 42.4707 90.3444 42.5794 90.2348 42.5794C90.1252 42.5794 90.1252 42.688 90.0155 42.688V42.7966C90.0155 42.9052 90.0155 42.9052 90.1252 42.9052C90.1252 42.9052 90.2348 43.0138 90.3444 43.0138H98.0193C98.1289 43.0138 98.1289 43.0139 98.2386 42.9052L98.3482 42.7966C98.3482 42.7966 98.3482 42.7966 98.2386 42.688Z" fill="#3F4242"/>
<path d="M113.917 32.8033C113.588 31.8257 113.04 31.0653 112.382 30.4136C111.724 29.7619 110.957 29.2188 109.97 28.7843C108.983 28.3498 107.997 28.2412 106.9 28.2412C105.804 28.2412 104.707 28.4585 103.721 28.8929C102.734 29.3274 101.857 29.8705 101.199 30.5222C100.431 31.174 99.8832 32.0429 99.5543 33.0205C99.1158 33.9981 98.8965 34.9757 98.8965 36.0619C98.8965 37.1481 99.1158 38.1257 99.4447 38.9947C99.7736 39.8636 100.322 40.7326 100.98 41.3843C101.637 42.036 102.405 42.5791 103.392 43.0136C104.379 43.4481 105.365 43.5567 106.462 43.5567C107.558 43.5567 108.655 43.3395 109.641 42.905C110.628 42.4705 111.505 41.9274 112.163 41.2757C112.931 40.5153 113.479 39.755 113.808 38.7774C114.246 37.7998 114.465 36.8222 114.465 35.736C114.465 34.6498 114.356 33.6722 113.917 32.8033ZM109.641 38.4516C109.532 39.3205 109.312 39.9722 109.093 40.624C108.874 41.2757 108.545 41.7102 108.106 42.036C107.777 42.3619 107.229 42.5791 106.791 42.5791C106.242 42.5791 105.804 42.3619 105.475 42.036C105.036 41.7102 104.817 41.1671 104.488 40.624C104.269 39.9722 104.05 39.3205 103.94 38.4516C103.83 37.5826 103.721 36.7136 103.721 35.8447C103.721 34.8671 103.83 33.9981 103.94 33.2378C104.05 32.3688 104.269 31.7171 104.488 31.0653C104.707 30.4136 105.036 29.9791 105.475 29.6533C105.804 29.3274 106.352 29.1102 106.791 29.1102C107.339 29.1102 107.777 29.3274 108.106 29.6533C108.545 29.9791 108.764 30.5222 109.093 31.0653C109.312 31.7171 109.532 32.3688 109.641 33.2378C109.751 34.1067 109.861 34.9757 109.861 35.8447C109.751 36.7136 109.751 37.5826 109.641 38.4516Z" fill="#3F4242"/>
<path d="M137.818 28.5671C137.818 28.5671 137.709 28.4585 137.599 28.4585H132.336C132.227 28.4585 132.227 28.4585 132.117 28.5671L132.007 28.6757C132.007 28.7844 132.007 28.7844 132.007 28.893C132.007 29.0016 132.117 29.0016 132.227 29.0016C132.446 29.0016 132.555 29.1102 132.775 29.2188C132.994 29.3275 133.213 29.4361 133.433 29.5447C133.652 29.6533 133.762 29.8706 133.871 30.0878C133.981 30.305 133.981 30.6309 133.871 31.0654C133.871 31.174 133.762 31.4999 133.652 31.8257C133.542 32.1516 133.433 32.5861 133.213 33.0206C133.104 33.455 132.884 33.8895 132.665 34.324C132.446 34.7585 132.336 35.193 132.117 35.6275C132.007 36.0619 131.788 36.3878 131.678 36.605C131.569 36.9309 131.459 37.0395 131.459 37.1481C131.349 37.2568 131.349 37.2568 131.24 37.1481C131.24 37.1481 131.13 37.0395 131.13 36.8223C131.021 36.605 130.911 36.2792 130.801 35.9533C130.692 35.6275 130.472 35.193 130.363 34.7585C130.143 34.324 130.034 33.7809 129.814 33.3464C129.595 32.9119 129.376 32.3688 129.266 31.9344C129.157 31.4999 128.937 31.0654 128.718 30.6309C128.608 30.1964 128.389 29.8706 128.279 29.6533C128.17 29.4361 128.06 29.2188 128.06 29.1102C127.951 29.0016 127.841 28.893 127.731 28.893C127.622 28.893 127.512 29.0016 127.512 29.1102C127.512 29.1102 127.402 29.3275 127.293 29.5447C127.183 29.7619 127.073 30.0878 126.854 30.5223C126.635 30.9568 126.525 31.2826 126.306 31.8257C126.087 32.2602 125.867 32.8033 125.648 33.2378C125.429 33.6723 125.21 34.2154 124.99 34.6499C124.771 35.0844 124.552 35.5188 124.442 35.8447C124.223 36.1706 124.113 36.4964 124.003 36.7137C123.894 36.9309 123.894 37.0395 123.784 37.0395C123.675 37.1482 123.675 37.1482 123.565 37.0395C123.565 37.0395 123.455 36.8223 123.346 36.605C123.236 36.3878 123.126 36.0619 122.907 35.6275C122.688 35.193 122.578 34.7585 122.359 34.324C122.14 33.8895 122.03 33.455 121.811 33.0206C121.591 32.5861 121.482 32.1516 121.372 31.8257C121.262 31.4999 121.153 31.174 121.043 31.0654C120.934 30.6309 120.934 30.4137 121.043 30.0878C121.153 29.8706 121.262 29.6533 121.482 29.5447C121.701 29.4361 121.92 29.3275 122.14 29.2188C122.359 29.1102 122.578 29.1102 122.688 29.0016C122.797 29.0016 122.797 28.893 122.907 28.893C122.907 28.7844 122.907 28.7844 122.907 28.6757C122.907 28.5671 122.907 28.5671 122.797 28.5671C122.688 28.5671 122.688 28.4585 122.578 28.4585H114.026C113.917 28.4585 113.917 28.4585 113.807 28.5671L113.697 28.6757C113.697 28.7844 113.697 28.7844 113.697 28.893C113.697 29.0016 113.807 29.0016 113.917 29.0016C114.245 29.1102 114.465 29.2188 114.684 29.3275C114.903 29.4361 115.123 29.5447 115.232 29.7619C115.452 29.9792 115.561 30.0878 115.671 30.4137C115.78 30.6309 116 30.9568 116.109 31.2826C116.219 31.3913 116.329 31.7171 116.438 32.043C116.658 32.4775 116.877 32.9119 117.096 33.5637C117.315 34.2154 117.644 34.8671 117.973 35.5188C118.302 36.2792 118.631 36.9309 118.96 37.6913C119.728 39.4292 120.495 41.2757 121.482 43.4482C121.591 43.5568 121.591 43.5568 121.701 43.5568C121.811 43.5568 121.92 43.5568 121.92 43.4482C122.578 42.0361 123.126 40.8413 123.565 39.6464C123.784 39.2119 124.004 38.6688 124.223 38.2344C124.442 37.7999 124.661 37.3654 124.771 36.9309C124.99 36.605 125.1 36.2792 125.21 35.9533C125.319 35.7361 125.429 35.5188 125.429 35.5188C125.538 35.4102 125.538 35.4102 125.648 35.5188C125.648 35.6275 125.758 35.7361 125.867 35.9533C125.977 36.1706 126.087 36.4964 126.306 36.9309C126.416 37.2568 126.635 37.6913 126.854 38.2344C127.073 38.6688 127.293 39.2119 127.512 39.6464C127.951 40.7326 128.499 42.0361 129.157 43.3395C129.266 43.4482 129.266 43.4482 129.376 43.4482C129.486 43.4482 129.595 43.4482 129.595 43.3395C130.582 41.2757 131.459 39.3206 132.227 37.5826C132.555 36.8223 132.884 36.1706 133.213 35.4102C133.542 34.6499 133.871 33.9982 134.09 33.455C134.31 32.8033 134.639 32.3688 134.748 31.9344C134.968 31.4999 135.077 31.2826 135.077 31.174C135.187 30.8482 135.406 30.6309 135.516 30.305C135.625 30.0878 135.845 29.8706 135.954 29.6533C136.174 29.4361 136.283 29.3275 136.503 29.2188C136.722 29.1102 136.941 29.0016 137.27 28.893C137.38 28.893 137.38 28.7844 137.489 28.7844C137.489 28.6757 137.599 28.6757 137.489 28.5671C137.928 28.6757 137.928 28.6757 137.818 28.5671Z" fill="#3F4242"/>
<path d="M160.076 39.2123C159.966 39.1037 159.857 39.1037 159.747 39.2123C159.637 39.2123 159.418 39.4296 159.199 39.5382C158.98 39.7554 158.651 39.9727 158.212 40.1899C157.774 40.4072 157.335 40.6244 156.896 40.8417C156.348 41.0589 155.8 41.1675 155.142 41.1675C154.484 41.1675 153.936 41.0589 153.388 40.733C152.84 40.5158 152.401 40.0813 151.963 39.5382C151.524 38.9951 151.195 38.452 150.976 37.6917C150.757 36.9313 150.647 36.171 150.647 35.1934C150.647 34.3244 150.757 33.4554 150.866 32.6951C150.976 31.9348 151.195 31.283 151.524 30.7399C151.743 30.1968 152.072 29.7623 152.511 29.4365C152.84 29.1106 153.278 29.002 153.717 29.002C154.046 29.002 154.375 29.1106 154.484 29.3279C154.704 29.5451 154.813 29.7623 154.923 30.0882C155.033 30.4141 155.142 30.7399 155.252 31.0658C155.361 31.3917 155.471 31.6089 155.581 31.8261C155.8 32.152 156.019 32.2606 156.239 32.3692C156.568 32.4779 156.787 32.5865 157.116 32.5865C157.335 32.5865 157.554 32.5865 157.774 32.4779C157.993 32.3692 158.212 32.2606 158.431 32.152C158.651 32.0434 158.76 31.8261 158.87 31.6089C158.98 31.3917 159.089 31.0658 159.089 30.7399C159.089 30.4141 158.98 29.9796 158.76 29.6537C158.541 29.3279 158.212 29.002 157.664 28.7848C157.225 28.5675 156.677 28.3503 156.019 28.2417C155.361 28.133 154.704 28.0244 153.936 28.0244C153.498 28.0244 152.949 28.133 152.401 28.2417C151.853 28.3503 151.305 28.5675 150.647 28.7848C150.099 29.002 149.441 29.3279 148.893 29.7623C148.344 30.1968 147.906 30.6313 147.467 31.283C147.029 31.8261 146.7 32.5865 146.481 33.3468C146.261 34.1072 146.042 35.0848 146.042 36.0623C146.042 37.2572 146.261 38.2348 146.59 39.2123C146.919 40.0813 147.467 40.8417 148.016 41.4934C148.673 42.1451 149.441 42.5796 150.318 42.9054C151.195 43.2313 152.182 43.3399 153.388 43.3399C154.155 43.3399 154.813 43.2313 155.361 43.1227C155.91 43.0141 156.458 42.7968 157.006 42.471C157.445 42.2537 157.883 41.9279 158.212 41.602C158.541 41.2761 158.87 41.0589 159.089 40.733C159.309 40.4072 159.528 40.1899 159.747 39.9727C159.857 39.7554 159.966 39.5382 160.076 39.4296C160.186 39.4296 160.186 39.321 160.076 39.2123Z" fill="#3F4242"/>
<path d="M173.562 39.1033C173.452 39.1033 173.343 39.1033 173.233 39.3206C173.123 39.4292 173.014 39.6464 172.794 39.9723C172.575 40.2982 172.356 40.624 172.027 40.9499C171.698 41.2757 171.259 41.493 170.711 41.8188C170.163 42.0361 169.615 42.1447 168.847 42.1447H165.997C165.777 42.1447 165.777 42.0361 165.887 41.9275C165.997 41.7102 166.216 41.3844 166.545 40.8413C166.874 40.4068 167.203 39.8637 167.532 39.2119C167.861 38.5602 168.299 37.9085 168.738 37.1481C169.176 36.3878 169.615 35.7361 170.053 34.9757C170.492 34.2154 170.931 33.5637 171.369 32.8033C171.808 32.1516 172.137 31.4999 172.465 30.9568C172.794 30.4137 173.014 29.9792 173.233 29.6533C173.452 29.3275 173.562 29.1102 173.562 29.1102C173.672 29.0016 173.672 28.893 173.672 28.6757C173.672 28.5671 173.452 28.4585 173.233 28.4585H161.721C161.501 28.4585 161.392 28.5671 161.392 28.7844V32.043C161.392 32.1516 161.501 32.2602 161.611 32.2602C161.721 32.2602 161.83 32.2602 161.94 32.043C162.05 31.9344 162.159 31.7171 162.379 31.3913C162.598 31.0654 162.817 30.8482 163.146 30.5223C163.475 30.1964 163.914 29.9792 164.462 29.7619C165.01 29.5447 165.558 29.4361 166.326 29.4361H168.19C168.299 29.4361 168.299 29.4361 168.299 29.5447V29.6533C168.19 29.8706 167.97 30.1964 167.641 30.6309C167.312 31.0654 166.983 31.6085 166.655 32.2602C166.326 32.9119 165.887 33.5637 165.448 34.324C165.01 35.0844 164.571 35.8447 164.133 36.4964C163.694 37.2568 163.256 37.9085 162.817 38.6688C162.379 39.3206 162.05 39.9723 161.721 40.5154C161.392 41.0585 161.172 41.493 160.953 41.8188C160.734 42.1447 160.624 42.3619 160.624 42.3619C160.515 42.4706 160.515 42.6878 160.515 42.7964C160.515 42.905 160.734 43.0137 160.953 43.0137H173.452C173.672 43.0137 173.781 42.905 173.781 42.6878V39.3206C173.781 39.2119 173.781 39.1033 173.562 39.1033Z" fill="#3F4242"/>
<path d="M143.081 22.8105C142.971 22.4846 142.752 22.2674 142.533 21.9415C142.314 21.7243 141.985 21.507 141.656 21.3984C141.327 21.2898 140.998 21.1812 140.559 21.1812C140.23 21.1812 139.792 21.2898 139.463 21.3984C139.134 21.507 138.805 21.7243 138.586 21.9415C138.367 22.1587 138.147 22.4846 138.038 22.8105C137.928 23.1363 137.818 23.4622 137.818 23.788C137.818 24.1139 137.928 24.4398 138.038 24.7656C138.147 25.0915 138.367 25.3087 138.586 25.526C138.805 25.7432 139.134 25.9605 139.463 26.0691C139.792 26.1777 140.121 26.2863 140.559 26.2863C140.998 26.2863 141.327 26.1777 141.656 26.0691C141.985 25.9605 142.314 25.7432 142.533 25.526C142.752 25.3087 142.971 24.9829 143.081 24.657C143.191 24.3312 143.3 24.0053 143.3 23.6794C143.3 23.4622 143.3 23.1363 143.081 22.8105Z" fill="#3F4242"/>
<path d="M145.164 42.6882C145.164 42.6882 145.055 42.5796 144.945 42.5796C144.835 42.5796 144.726 42.5796 144.506 42.471C144.287 42.3623 144.068 42.3623 143.849 42.1451C143.629 42.0365 143.41 41.8192 143.3 41.4934C143.081 41.2761 143.081 40.8416 143.081 40.4072V28.2417C143.081 28.133 143.081 28.0244 142.971 28.0244C142.862 28.0244 142.752 28.0244 142.643 28.133C142.314 28.3503 141.875 28.6761 141.436 28.8934C140.998 29.1106 140.45 29.3279 140.011 29.5451C139.792 29.6537 139.573 29.7623 139.244 29.871C138.915 29.9796 138.695 30.3054 138.695 30.6313V40.6244C138.695 41.0589 138.586 41.3848 138.476 41.7106C138.257 41.9279 138.147 42.1451 137.928 42.3623C137.709 42.471 137.489 42.5796 137.27 42.6882C137.051 42.7968 136.941 42.7968 136.832 42.7968C136.722 42.7968 136.722 42.7968 136.612 42.9054V43.0141C136.612 43.0141 136.612 43.1227 136.722 43.1227C136.722 43.1227 136.832 43.2313 136.941 43.2313H145.164C145.274 43.2313 145.274 43.2313 145.384 43.1227L145.493 43.0141C145.164 42.7968 145.164 42.7968 145.164 42.6882Z" fill="#3F4242"/>
<path d="M70.3899 41.7104C70.2803 41.6018 70.1707 41.6018 70.061 41.6018C69.8417 41.6018 69.7321 41.7104 69.5128 41.7104C69.2935 41.7104 69.1839 41.7104 69.0742 41.6018C68.855 41.4932 68.6357 41.1673 68.6357 40.7328C68.6357 40.2983 68.6357 39.6466 68.6357 38.9949V34.2156C68.6357 33.9983 68.6357 33.7811 68.6357 33.5638C68.6357 32.369 68.6357 31.1742 67.8682 30.1966C67.2104 29.3276 66.2236 28.7845 65.1272 28.4587C64.2501 28.2414 63.2633 28.1328 62.0572 28.1328C60.9608 28.1328 60.0837 28.2414 59.3162 28.3501C58.6584 28.5673 58.0005 28.7845 57.6716 29.0018C57.233 29.219 57.0138 29.5449 56.7945 29.8707C56.6848 30.1966 56.5752 30.5225 56.5752 30.8483C56.5752 31.0656 56.5752 31.2828 56.6848 31.5001C56.7945 31.7173 56.9041 31.9345 57.0138 32.0432C57.1234 32.2604 57.3427 32.369 57.562 32.4776C57.7812 32.5863 58.0005 32.5863 58.3294 32.5863C58.6584 32.5863 58.8776 32.5863 59.2066 32.4776C59.5355 32.369 59.7548 32.2604 59.9741 32.0432C60.1933 31.8259 60.4126 31.5001 60.5223 31.0656C60.6319 30.7397 60.7415 30.3052 60.8512 29.9794C60.9608 29.6535 61.1801 29.3276 61.3994 29.1104C61.6187 28.8932 61.9476 28.7845 62.3862 28.7845C62.6054 28.7845 62.9344 28.8932 63.1536 29.0018C63.3729 29.1104 63.5922 29.3276 63.7018 29.5449C63.8115 29.7621 64.0308 30.088 64.1404 30.4138C64.2501 30.7397 64.2501 31.0656 64.2501 31.3914C64.2501 31.8259 64.1404 32.2604 64.0308 32.6949C63.9211 33.1294 63.5922 33.4552 63.1536 33.6725C62.8247 33.8897 62.3862 34.107 61.9476 34.2156C61.509 34.3242 61.0705 34.4328 60.6319 34.5414C60.1933 34.6501 59.7548 34.6501 59.3162 34.7587C58.8777 34.8673 58.4391 34.9759 58.0005 35.0845C57.233 35.4104 56.5752 35.8449 56.1366 36.4966C55.6981 37.1483 55.3691 37.9087 55.3691 38.7776C55.3691 39.3207 55.4788 39.8638 55.5884 40.4069C55.8077 40.9501 56.027 41.3845 56.4655 41.819C56.9041 42.2535 57.4523 42.5794 58.1102 42.9052C58.768 43.1225 59.5355 43.3397 60.5223 43.3397C61.0705 43.3397 61.6187 43.2311 62.0572 43.1225C62.4958 43.0138 62.8247 42.7966 63.1536 42.688C63.4826 42.4707 63.7018 42.3621 63.9211 42.2535C64.1404 42.1449 64.1404 42.0363 64.2501 42.0363C64.3597 42.0363 64.3597 41.9276 64.4693 41.9276C64.579 41.9276 64.579 41.9276 64.6886 42.0363C64.9079 42.3621 65.1272 42.688 65.6754 42.9052C66.1139 43.1225 66.6622 43.3397 67.32 43.3397C67.7586 43.3397 68.1971 43.3397 68.526 43.2311C68.855 43.1225 69.1839 43.0138 69.4032 42.9052C69.6225 42.7966 69.8417 42.5794 69.9514 42.4707C70.061 42.3621 70.1707 42.1449 70.2803 42.0363C70.4996 41.9276 70.4996 41.7104 70.3899 41.7104ZM64.3597 39.7552C64.3597 39.8638 64.3597 40.0811 64.2501 40.2983C64.1404 40.5156 64.1404 40.7328 63.9211 40.9501C63.8115 41.1673 63.5922 41.3845 63.3729 41.4932C63.1536 41.6018 62.8247 41.7104 62.3862 41.7104C61.9476 41.7104 61.6187 41.6018 61.3994 41.4932C61.0705 41.3845 60.8512 41.1673 60.7415 40.9501C60.5223 40.7328 60.4126 40.407 60.303 40.1897C60.1933 39.8638 60.1933 39.6466 60.1933 39.3207C60.1933 38.8863 60.303 38.4518 60.4126 38.1259C60.5223 37.6914 60.7415 37.3656 61.0705 37.0397C61.2897 36.8225 61.3994 36.6052 61.6187 36.4966C61.838 36.2794 62.0572 36.1707 62.2765 35.9535C62.4958 35.7363 62.7151 35.519 62.9344 35.4104C63.1536 35.1932 63.3729 34.9759 63.5922 34.7587C63.7018 34.6501 63.8115 34.5414 63.9211 34.4328C64.0308 34.3242 64.0308 34.2156 64.1404 34.1069C64.1404 33.9983 64.2501 33.9983 64.2501 34.1069C64.3597 34.1069 64.3597 34.2156 64.3597 34.2156V39.7552Z" fill="#3F4242"/>
</svg>
