<svg width="49" height="34" viewBox="0 0 49 34" fill="none" xmlns="http://www.w3.org/2000/svg">
<g clip-path="url(#clip0)">
<path d="M13.7383 0.51178C15.7342 0.51178 17.4231 0.818848 18.9073 1.43299C20.3403 2.04712 21.5685 2.86597 22.4897 3.88953C23.4109 4.9131 24.1274 6.19255 24.588 7.57436C25.0486 9.00735 25.2534 10.5427 25.2534 12.1292C25.2534 13.7669 24.9975 15.3534 24.5369 16.7864C24.0763 18.2194 23.3086 19.4989 22.3362 20.5736C21.3638 21.6483 20.1355 22.5184 18.6514 23.1325C17.1672 23.7466 15.4272 24.0537 13.4312 24.0537H1.25082C1.14847 24.0537 1.04611 24.0025 0.994934 23.9514C0.943756 23.9514 0.892578 23.9002 0.892578 23.7978C0.892578 23.7466 0.892578 23.6955 0.943756 23.5931C0.994934 23.5419 1.09729 23.4907 1.19965 23.4907C1.35318 23.4907 1.55789 23.4396 1.86496 23.3372C2.17203 23.2349 2.4791 23.1325 2.78617 22.9278C3.09324 22.7231 3.34913 22.4672 3.60502 22.1089C3.86091 21.7507 3.96326 21.3413 3.96326 20.7783V3.736C3.96326 3.22422 3.86091 2.76362 3.60502 2.40537C3.34913 2.04712 3.09324 1.79123 2.78617 1.58652C2.4791 1.43298 2.17203 1.27945 1.86496 1.22827C1.55789 1.17709 1.35318 1.07474 1.19965 1.07474C1.09729 1.07474 0.994934 1.02356 0.943756 0.972383C0.892578 0.921204 0.892578 0.870027 0.892578 0.76767C0.892578 0.716492 0.943756 0.665314 0.994934 0.614135C1.04611 0.562957 1.14847 0.51178 1.25082 0.51178H13.7383ZM13.4312 23.0301C14.3524 23.0301 15.1201 22.7743 15.7342 22.2113C16.3995 21.6995 16.9113 20.9318 17.3208 20.0106C17.7302 19.0383 18.0372 17.9123 18.242 16.6329C18.4467 15.3534 18.4978 13.8693 18.4978 12.3339C18.4978 10.7986 18.3955 9.36559 18.242 8.08614C18.0372 6.80669 17.7814 5.73195 17.3719 4.81074C16.9625 3.88953 16.5019 3.17304 15.8878 2.61008C15.2736 2.04712 14.5571 1.74005 13.6871 1.68888C13.5336 1.68888 13.38 1.68888 13.1241 1.6377C12.8683 1.6377 12.6124 1.6377 12.3565 1.6377C12.1006 1.6377 11.7935 1.6377 11.5376 1.6377C11.2817 1.6377 11.0258 1.6377 10.8723 1.6377C10.5141 1.6377 10.207 1.74005 10.0023 1.94477C9.79757 2.14948 9.69521 2.40537 9.69521 2.71244V15.7629C9.69521 17.0935 9.74639 18.2194 9.89993 19.0894C10.0535 19.9595 10.207 20.7783 10.5141 21.3413C10.8211 21.9042 11.1794 22.3648 11.6912 22.6207C12.1518 22.8766 12.7147 23.0301 13.4312 23.0301Z" fill="#29302B"/>
<path d="M48.7957 32.2931C48.898 32.2931 48.9492 32.3443 49.0004 32.3955C49.0515 32.4467 49.0515 32.4979 49.0515 32.6002C49.0515 32.6514 49.0004 32.7537 48.9492 32.8049C48.898 32.8561 48.7957 32.9073 48.6933 32.9073H37.7412C37.6388 32.9073 37.5877 32.9073 37.5365 32.8561C37.4853 32.8049 37.4341 32.7537 37.4341 32.7026C37.4341 32.6514 37.4341 32.6002 37.4853 32.4978C37.5365 32.4467 37.5877 32.3955 37.7412 32.3443C37.8435 32.2931 38.0483 32.242 38.3553 32.1396C38.6624 32.0372 38.9183 31.8837 39.2254 31.679C39.4812 31.4743 39.686 31.1672 39.8395 30.809C39.993 30.4507 39.993 29.9901 39.7883 29.4272C39.7371 29.2736 39.6348 29.0689 39.5324 28.7618C39.4301 28.4548 39.3277 28.1477 39.2254 27.7383C39.123 27.38 38.9695 26.9706 38.8671 26.6124C38.7136 26.2029 38.6112 25.8447 38.5089 25.5376C38.4065 25.2306 38.3041 24.9235 38.253 24.6676C38.1506 24.4117 38.1506 24.3094 38.0994 24.2582C38.0483 24.1558 37.9971 24.1046 37.8947 24.1046H30.3204C30.218 24.1046 30.1668 24.1558 30.1156 24.2582C30.0645 24.4117 30.0133 24.6164 29.9109 24.9747C29.8086 25.2817 29.7062 25.6912 29.5527 26.0494C29.3992 26.4588 29.2968 26.8683 29.1433 27.3289C28.9897 27.7895 28.8874 28.1989 28.785 28.5571C28.6827 28.9154 28.5803 29.2736 28.4779 29.5807C28.3756 29.8878 28.3244 30.0413 28.3244 30.1437C28.2221 30.5531 28.2732 30.9113 28.3756 31.1672C28.5291 31.4231 28.6827 31.6278 28.9386 31.7814C29.1944 31.9349 29.3992 32.0372 29.7062 32.1396C29.9621 32.1908 30.218 32.242 30.3715 32.2931C30.4739 32.2931 30.5251 32.3443 30.5763 32.4467C30.6274 32.4978 30.6274 32.549 30.6274 32.6514C30.6274 32.7026 30.5763 32.7537 30.5251 32.8049C30.4739 32.8561 30.3715 32.8561 30.3204 32.8561H23.8207C23.7184 32.8561 23.6672 32.8561 23.616 32.8049C23.5649 32.7537 23.5137 32.7026 23.5137 32.6514C23.5137 32.6002 23.5137 32.549 23.5649 32.4467C23.616 32.3955 23.6672 32.3443 23.7696 32.2931C24.0766 32.1908 24.3837 32.0884 24.6396 31.9861C24.9467 31.8837 25.2026 31.7302 25.4584 31.5255C25.7143 31.3208 25.919 31.116 26.1238 30.8602C26.3285 30.6043 26.482 30.2972 26.6355 29.9389C26.6867 29.7854 26.8402 29.3248 27.0961 28.7107C27.352 28.0454 27.6079 27.2265 27.9662 26.3053C28.3244 25.3329 28.6827 24.2582 29.0921 23.1323C29.5015 21.9552 29.9109 20.7781 30.3204 19.601C30.7298 18.4239 31.1392 17.2468 31.5486 16.1209C31.9581 14.9949 32.3163 13.9714 32.5722 13.1013C32.8793 12.2313 33.1352 11.5148 33.3399 10.9519C33.5446 10.3889 33.6469 10.133 33.6469 10.0818C33.6981 9.97948 33.7493 9.87713 33.8005 9.77477C33.8516 9.72359 34.0052 9.67241 34.1075 9.62124C34.3634 9.57006 34.6705 9.51888 34.9776 9.41652C35.3358 9.31417 35.6429 9.26299 36.0011 9.16063C36.3594 9.05828 36.7176 8.95592 37.0759 8.85356C37.4341 8.75121 37.7412 8.64885 38.0483 8.49532C38.253 8.39296 38.4065 8.39296 38.4577 8.44414C38.56 8.49532 38.6112 8.59767 38.6624 8.70003C38.6624 8.75121 38.7648 9.0071 38.9695 9.57006C39.1742 10.133 39.3789 10.8495 39.686 11.7195C39.993 12.5896 40.3001 13.6131 40.7095 14.739C41.1189 15.865 41.4772 17.0421 41.8866 18.2192C42.296 19.3963 42.7055 20.6245 43.0637 21.8016C43.4731 22.9787 43.8314 24.0535 44.1385 25.077C44.4455 26.0494 44.7526 26.9194 45.0085 27.6359C45.2644 28.3524 45.4179 28.813 45.5203 29.1201C45.6738 29.6319 45.8785 30.0413 46.1344 30.3995C46.3903 30.7578 46.6462 31.0649 46.9021 31.3208C47.2091 31.5766 47.465 31.7814 47.8233 31.9349C48.1815 32.1396 48.4886 32.242 48.7957 32.2931ZM30.6274 22.7228C30.5763 22.8764 30.6274 22.9275 30.781 22.9275H37.4341C37.5877 22.9275 37.6388 22.8764 37.5877 22.7228C37.5877 22.6717 37.5365 22.5181 37.4341 22.211C37.3318 21.904 37.2294 21.4946 37.0247 21.034C36.8712 20.5733 36.6664 20.0104 36.4617 19.3963C36.257 18.7821 36.0523 18.168 35.8476 17.5538C35.6429 16.9397 35.4382 16.3256 35.2335 15.7114C35.0287 15.0973 34.8752 14.5855 34.7217 14.1249C34.5681 13.6643 34.4146 13.2549 34.3123 12.999C34.2099 12.6919 34.1587 12.5384 34.1587 12.5384C34.1587 12.436 34.1075 12.436 34.0052 12.436C33.954 12.436 33.9028 12.4872 33.8517 12.5384C33.8517 12.5384 33.7493 12.7943 33.6469 13.1525C33.4934 13.562 33.3399 14.0737 33.1352 14.6879C32.9304 15.302 32.7257 16.0185 32.4698 16.7862C32.214 17.5538 32.0092 18.3215 31.7533 19.038C31.4975 19.8057 31.2927 20.471 31.088 21.1363C30.8833 21.8016 30.7298 22.3134 30.6274 22.7228Z" fill="#29302B"/>
<path d="M17.9861 32.8562H1.45554C1.14847 32.8562 0.892578 32.6003 0.892578 32.2932C0.892578 31.9862 1.14847 31.7303 1.45554 31.7303H17.9349C18.242 31.7303 18.4978 31.9862 18.4978 32.2932C18.549 32.6003 18.2931 32.8562 17.9861 32.8562Z" fill="#29302B"/>
</g>
<defs>
<clipPath id="clip0">
<rect width="48.1074" height="33.2658" fill="#000000" transform="translate(0.892578)"/>
</clipPath>
</defs>
</svg>
