<svg width="85" height="76" viewBox="0 0 85 76" fill="none" xmlns="http://www.w3.org/2000/svg">
<g clip-path="url(#clip0)">
<path d="M15.5771 0V6.47984" stroke="#3F4242" stroke-width="2" stroke-miterlimit="10"/>
<path d="M12.3213 3.26514H18.7827" stroke="#3F4242" stroke-width="2" stroke-miterlimit="10"/>
<path d="M47.0153 49.8248C53.4608 49.8248 58.6859 44.5848 58.6859 38.1209C58.6859 31.657 53.4608 26.417 47.0153 26.417C40.5698 26.417 35.3447 31.657 35.3447 38.1209C35.3447 44.5848 40.5698 49.8248 47.0153 49.8248Z" stroke="#3F4242" stroke-width="2" stroke-miterlimit="10"/>
<path d="M47.0156 65.949C62.3409 65.949 74.7645 53.4899 74.7645 38.1209C74.7645 22.7518 62.3409 10.2927 47.0156 10.2927C31.6902 10.2927 19.2666 22.7518 19.2666 38.1209C19.2666 53.4899 31.6902 65.949 47.0156 65.949Z" stroke="#3F4242" stroke-width="2" stroke-miterlimit="10"/>
<path d="M84.0309 38.121C84.0309 17.6266 67.4517 1 47.0156 1" stroke="#3F4242" stroke-width="2" stroke-miterlimit="10"/>
<path d="M10 38.1208C10 58.6152 26.5793 75.2418 47.0153 75.2418" stroke="#3F4242" stroke-width="2" stroke-miterlimit="10"/>
<path d="M47.0157 42.2901C49.3118 42.2901 51.1731 40.4234 51.1731 38.1209C51.1731 35.8183 49.3118 33.9517 47.0157 33.9517C44.7197 33.9517 42.8584 35.8183 42.8584 38.1209C42.8584 40.4234 44.7197 42.2901 47.0157 42.2901Z" fill="#F4C201"/>
<path d="M2.85469 20.444C4.01654 20.444 4.9584 19.4995 4.9584 18.3343C4.9584 17.1692 4.01654 16.2246 2.85469 16.2246C1.69284 16.2246 0.750977 17.1692 0.750977 18.3343C0.750977 19.4995 1.69284 20.444 2.85469 20.444Z" stroke="#3F4242" stroke-width="2" stroke-miterlimit="10"/>
</g>
<defs>
<clipPath id="clip0">
<rect width="85" height="76" fill="white"/>
</clipPath>
</defs>
</svg>
