<svg width="113" height="101" viewBox="0 0 113 101" fill="none" xmlns="http://www.w3.org/2000/svg">
<path d="M87.4557 42.7308C96.3028 42.7308 103.475 35.5807 103.475 26.7607C103.475 17.9406 96.3028 10.7906 87.4557 10.7906C78.6085 10.7906 71.4365 17.9406 71.4365 26.7607C71.4365 35.5807 78.6085 42.7308 87.4557 42.7308Z" fill="#F4C201"/>
<path d="M31.6043 15.97C35.6692 15.97 38.9644 12.6849 38.9644 8.63244C38.9644 4.57999 35.6692 1.29483 31.6043 1.29483C27.5394 1.29483 24.2441 4.57999 24.2441 8.63244C24.2441 12.6849 27.5394 15.97 31.6043 15.97Z" stroke="black" stroke-width="1.5" stroke-miterlimit="10" stroke-linecap="round" stroke-linejoin="round"/>
<path d="M32.9056 44.4573C32.9056 44.4573 32.9056 48.7735 32.4727 54.3847L40.2658 72.5129V96.2522C40.2658 97.9787 38.9669 99.2735 37.2351 99.2735H36.8022C35.0704 99.2735 33.7715 97.9787 33.7715 96.2522L33.3386 75.5342L24.6796 63.0171L11.2581 96.6838C10.3922 98.4103 8.66041 99.2735 6.92861 98.4103L6.06271 97.9787C4.33091 97.1154 3.46501 95.3889 4.33091 93.6624L13.4229 72.5129L16.4535 49.2052L18.6183 25.4659C19.0512 21.5812 23.3807 18.1282 28.1432 18.5599C31.1738 18.9915 33.7715 20.718 35.0704 22.8761V23.3077L35.5033 24.171L41.9976 38.8462L51.5225 43.1624C52.3884 43.5941 53.2543 44.8889 52.8213 45.7522L52.3884 47.047C51.9554 48.3419 50.6566 49.2052 48.9248 48.7735L38.9669 44.8889L33.3386 35.3932" stroke="black" stroke-width="1.5" stroke-miterlimit="10" stroke-linecap="round" stroke-linejoin="round"/>
<path d="M10.8228 50.5C9.5239 51.3632 8.22505 52.2265 6.49325 51.7948C3.4626 51.3632 1.29785 48.7735 1.29785 45.7521L2.5967 30.2136C3.02965 27.1923 5.62735 25.0341 8.658 25.0341C10.3898 25.0341 11.6887 25.8974 12.5546 27.1923" stroke="black" stroke-width="1.5" stroke-miterlimit="10" stroke-linecap="round" stroke-linejoin="round"/>
<path d="M50.2207 33.2351L65.374 11.6539L112.133 76.8291" stroke="black" stroke-width="1.5" stroke-miterlimit="10" stroke-linecap="round" stroke-linejoin="round"/>
<path d="M91.3516 76.829L97.4129 69.0598L103.474 76.829H91.3516Z" fill="#F9A01B"/>
<path d="M67.1064 48.7734H74.4665C78.3631 48.7734 81.3937 51.7948 81.3937 55.6794C81.3937 59.564 78.3631 62.5854 74.4665 62.5854H62.3439C57.5815 62.5854 54.1179 66.47 54.1179 70.7863C54.1179 75.5341 58.0144 78.9871 62.3439 78.9871H81.3937C87.0221 78.9871 91.3516 83.3034 91.3516 88.9145C91.3516 94.5256 87.0221 98.8418 81.3937 98.8418H53.252" stroke="black" stroke-width="1.5" stroke-miterlimit="10" stroke-linecap="round" stroke-linejoin="round"/>
</svg>
