<svg width="37" height="37" viewBox="0 0 37 37" fill="none" xmlns="http://www.w3.org/2000/svg">
<path opacity="0.8" fill-rule="evenodd" clip-rule="evenodd" d="M18.5 36C28.165 36 36 28.165 36 18.5C36 8.83502 28.165 1 18.5 1C8.83502 1 1 8.83502 1 18.5C1 28.165 8.83502 36 18.5 36Z" stroke="#C4C4C4"/>
<path fill-rule="evenodd" clip-rule="evenodd" d="M18.5006 12C16.7353 12 16.5138 12.0077 15.8204 12.0393C15.1284 12.071 14.6561 12.1805 14.2428 12.3413C13.8153 12.5073 13.4526 12.7294 13.0913 13.0908C12.7298 13.4521 12.5077 13.8147 12.3411 14.2421C12.18 14.6555 12.0703 15.128 12.0391 15.8197C12.0081 16.513 12 16.7347 12 18.5C12 20.2653 12.0079 20.4862 12.0393 21.1795C12.0711 21.8715 12.1806 22.3438 12.3413 22.7571C12.5074 23.1846 12.7295 23.5473 13.0909 23.9085C13.4521 24.2701 13.8147 24.4927 14.242 24.6588C14.6555 24.8195 15.128 24.929 15.8199 24.9607C16.5132 24.9923 16.7346 25 18.4998 25C20.2652 25 20.4861 24.9923 21.1795 24.9607C21.8714 24.929 22.3443 24.8195 22.7579 24.6588C23.1853 24.4927 23.5474 24.2701 23.9085 23.9085C24.2701 23.5473 24.4922 23.1846 24.6587 22.7572C24.8185 22.3438 24.9282 21.8713 24.9607 21.1796C24.9919 20.4863 25 20.2653 25 18.5C25 16.7347 24.9919 16.5132 24.9607 15.8198C24.9282 15.1279 24.8185 14.6555 24.6587 14.2422C24.4922 13.8147 24.2701 13.4521 23.9085 13.0908C23.547 12.7292 23.1854 12.5071 22.7575 12.3413C22.3431 12.1805 21.8705 12.071 21.1785 12.0393C20.4852 12.0077 20.2644 12 18.4986 12H18.5006ZM17.9175 13.1713C18.0905 13.1711 18.2836 13.1713 18.5006 13.1713C20.2361 13.1713 20.4418 13.1776 21.1271 13.2087C21.7609 13.2377 22.1049 13.3436 22.334 13.4326C22.6373 13.5504 22.8536 13.6912 23.081 13.9187C23.3085 14.1462 23.4493 14.3629 23.5674 14.6662C23.6564 14.8951 23.7624 15.239 23.7912 15.8728C23.8224 16.558 23.8291 16.7638 23.8291 18.4985C23.8291 20.2332 23.8224 20.439 23.7912 21.1242C23.7622 21.758 23.6564 22.1019 23.5674 22.3308C23.4496 22.6341 23.3085 22.8501 23.081 23.0775C22.8535 23.305 22.6375 23.4458 22.334 23.5636C22.1051 23.653 21.7609 23.7586 21.1271 23.7876C20.4419 23.8187 20.2361 23.8255 18.5006 23.8255C16.7649 23.8255 16.5592 23.8187 15.874 23.7876C15.2403 23.7583 14.8963 23.6525 14.667 23.5635C14.3637 23.4457 14.147 23.3048 13.9195 23.0773C13.692 22.8498 13.5512 22.6337 13.4331 22.3302C13.3441 22.1014 13.2381 21.7574 13.2093 21.1237C13.1781 20.4385 13.1719 20.2326 13.1719 18.4969C13.1719 16.7611 13.1781 16.5563 13.2093 15.8711C13.2382 15.2374 13.3441 14.8934 13.4331 14.6643C13.5509 14.361 13.692 14.1443 13.9195 13.9168C14.147 13.6893 14.3637 13.5485 14.667 13.4304C14.8962 13.341 15.2403 13.2354 15.874 13.2063C16.4736 13.1792 16.706 13.1711 17.9175 13.1697V13.1713ZM21.9703 14.2506C21.5396 14.2506 21.1903 14.5996 21.1903 15.0303C21.1903 15.461 21.5396 15.8103 21.9703 15.8103C22.4009 15.8103 22.7503 15.461 22.7503 15.0303C22.7503 14.5997 22.4009 14.2506 21.9703 14.2506ZM18.5006 15.162C16.6572 15.162 15.1626 16.6566 15.1626 18.5C15.1626 20.3434 16.6572 21.8373 18.5006 21.8373C20.3441 21.8373 21.8381 20.3434 21.8381 18.5C21.8381 16.6566 20.3441 15.162 18.5006 15.162ZM18.5006 16.3333C19.6971 16.3333 20.6673 17.3033 20.6673 18.5C20.6673 19.6965 19.6971 20.6666 18.5006 20.6666C17.3039 20.6666 16.3339 19.6965 16.3339 18.5C16.3339 17.3033 17.3039 16.3333 18.5006 16.3333Z" fill="#3F4242"/>
</svg>
