<svg width="37" height="37" viewBox="0 0 37 37" fill="none" xmlns="http://www.w3.org/2000/svg">
<path opacity="0.8" fill-rule="evenodd" clip-rule="evenodd" d="M18.5 36C28.165 36 36 28.165 36 18.5C36 8.83502 28.165 1 18.5 1C8.83502 1 1 8.83502 1 18.5C1 28.165 8.83502 36 18.5 36Z" stroke="#C4C4C4"/>
<path fill-rule="evenodd" clip-rule="evenodd" d="M23.5789 14.2772C24.1383 14.4298 24.5788 14.8792 24.7283 15.45C25 16.4845 25 18.6429 25 18.6429C25 18.6429 25 20.8012 24.7283 21.8357C24.5788 22.4065 24.1383 22.856 23.5789 23.0086C22.5652 23.2857 18.5 23.2857 18.5 23.2857C18.5 23.2857 14.4348 23.2857 13.421 23.0086C12.8616 22.856 12.4211 22.4065 12.2716 21.8357C12 20.8012 12 18.6429 12 18.6429C12 18.6429 12 16.4845 12.2716 15.45C12.4211 14.8792 12.8616 14.4298 13.421 14.2772C14.4348 14 18.5 14 18.5 14C18.5 14 22.5652 14 23.5789 14.2772ZM17.2813 16.826V20.8633L20.5313 18.8448L17.2813 16.826Z" fill="#3F4242"/>
</svg>
