<svg width="164" height="73" viewBox="0 0 164 73" fill="none" xmlns="http://www.w3.org/2000/svg">
<path d="M32.376 66.5259V72.9166" stroke="#3F4242" stroke-width="2" stroke-miterlimit="10"/>
<path d="M13.6508 72.9169C13.6508 71.1556 13.6508 71.6588 13.6508 69.8976C13.6508 66.9287 13.8014 64.161 12.2953 61.4437C10.6387 58.4748 7.77719 56.4116 5.71893 53.7446C3.61047 50.9267 2.00403 47.9074 1.35141 44.385C1.1506 43.1773 1 41.9192 1 40.6612C1 30.2951 8.73102 21.6903 18.6709 20.3819C19.5243 20.231 20.4781 20.1807 21.3818 20.1807C30.0666 20.1807 38.7012 26.2695 40.9603 34.1698L45.0768 49.719C45.0768 49.719 39.6049 49.719 39.0527 49.719V58.0722C39.0527 61.8463 35.9904 64.8655 32.2755 64.8655H22.3356" stroke="#3F4242" stroke-width="2" stroke-miterlimit="10"/>
<path d="M131.624 66.5259V72.9166" stroke="#3F4242" stroke-width="2" stroke-miterlimit="10"/>
<path d="M150.35 72.9169C150.35 71.1556 150.35 71.6588 150.35 69.8976C150.35 66.9287 150.199 64.161 151.705 61.4437C153.362 58.4748 156.223 56.4116 158.282 53.7446C160.39 50.9267 161.997 47.9074 162.649 44.385C162.85 43.1773 163.001 41.9192 163.001 40.6612C163.001 30.2951 155.27 21.6903 145.33 20.3819C144.476 20.231 143.523 20.1807 142.619 20.1807C133.934 20.1807 125.299 26.2695 123.04 34.1698L118.924 49.719C118.924 49.719 124.396 49.719 124.948 49.719V58.0722C124.948 61.8463 128.01 64.8655 131.725 64.8655H141.665" stroke="#3F4242" stroke-width="2" stroke-miterlimit="10"/>
<path d="M89.9071 19.0738C89.9071 29.6411 81.3729 38.1453 70.8808 38.1453C68.8226 38.1453 66.8647 37.7931 65.0073 37.1892L57.7783 42.6742V32.9623C54.1136 29.4902 51.8545 24.5587 51.8545 19.1241C51.8545 8.60703 60.3887 0.0524902 70.8808 0.0524902C81.3729 0.0524902 89.9071 8.55671 89.9071 19.0738Z" fill="#F9A01B"/>
<path d="M115.509 11.9282V18.4196" stroke="#3F4242" stroke-width="2" stroke-miterlimit="10"/>
<path d="M112.296 15.199H118.772" stroke="#3F4242" stroke-width="2" stroke-miterlimit="10"/>
</svg>
