<svg width="106" height="105" viewBox="0 0 106 105" fill="none" xmlns="http://www.w3.org/2000/svg">
<path d="M59.546 18.9759L67.9922 7.59036L53.6336 0L46.032 19.3976L51.0997 26.5663L44.3428 43.8554L62.5021 29.9398L59.546 18.9759Z" fill="#F4C201"/>
<path d="M23.2275 103.735V92.7711" stroke="black" stroke-width="1.5" stroke-miterlimit="10" stroke-linecap="round" stroke-linejoin="round"/>
<path d="M56.167 92.7711C56.167 94.8795 56.167 96.5662 56.167 98.6747C56.167 101.626 56.167 100.783 56.167 103.735" stroke="black" stroke-width="1.5" stroke-miterlimit="10" stroke-linecap="round" stroke-linejoin="round"/>
<path d="M84.0402 40.0603L104.733 33.735L94.598 11.3856L66.7255 27.8313V41.747L42.2314 56.506H84.0402V40.0603Z" stroke="black" stroke-width="1.5" stroke-miterlimit="10" stroke-linecap="round" stroke-linejoin="round"/>
<path d="M71.793 80.9639L84.4623 86.8675L90.3746 67.8916H68.8368L62.9244 74.6386L44.3428 71.2651L62.0798 86.0241L71.793 80.9639Z" stroke="black" stroke-width="1.5" stroke-miterlimit="10" stroke-linecap="round" stroke-linejoin="round"/>
<path d="M65.8802 20.2409C59.9678 15.1807 51.9439 11.8072 43.4977 11.8072C39.6969 11.8072 36.3184 12.2289 32.9399 13.4939C21.5375 16.8674 11.4021 25.7229 8.44589 36.265L1.2666 63.253C1.2666 63.253 10.9797 63.253 11.8244 63.253V77.5903C11.8244 84.3373 17.3144 89.3975 23.6491 89.3975H40.9638" stroke="black" stroke-width="1.5" stroke-miterlimit="10" stroke-linecap="round" stroke-linejoin="round"/>
<path d="M73.0107 97L79.8124 103.802" stroke="black" stroke-width="1.31739" stroke-miterlimit="10" stroke-linecap="round"/>
<path d="M79.4418 97.3703L73 103.812" stroke="black" stroke-width="1.31739" stroke-miterlimit="10" stroke-linecap="round"/>
</svg>
