<svg width="95" height="101" viewBox="0 0 95 101" fill="none" xmlns="http://www.w3.org/2000/svg">
<g clip-path="url(#clip0)">
<path d="M20.6538 8.95968C23.1631 8.95968 25.1973 6.95399 25.1973 4.47984C25.1973 2.00569 23.1631 0 20.6538 0C18.1445 0 16.1104 2.00569 16.1104 4.47984C16.1104 6.95399 18.1445 8.95968 20.6538 8.95968Z" fill="#F9A01B"/>
<path d="M46.3696 45H21C13.8203 45 8 50.8203 8 58V79.6169L46.3696 45Z" fill="#F4C201"/>
<path d="M71.0449 89.5968V101" stroke="black" stroke-width="1.5" stroke-miterlimit="10" stroke-linecap="round"/>
<path d="M38.4147 101C38.4147 98.1492 38.4147 98.9637 38.4147 95.7057C38.4147 90.4113 38.8277 85.9315 35.9364 81.0444C33.0451 75.75 28.0886 72.4919 24.3712 67.6048C20.6538 62.7178 17.7625 57.4234 16.5234 51.3145C16.1104 49.2782 16.1104 46.8347 16.1104 44.7984C16.1104 26.879 29.7408 11.8105 47.0886 9.7742C48.7408 9.36694 50.393 9.36694 52.0451 9.36694C67.3277 9.36694 82.6104 19.9557 86.3277 33.3952L93.3495 60.2742C93.3495 60.2742 83.8495 60.2742 82.6104 60.2742V74.9355C82.6104 81.4516 77.2408 86.746 70.6321 86.746H53.6973" stroke="black" stroke-width="1.5" stroke-miterlimit="10" stroke-linecap="round"/>
<path d="M40.8913 72.4919V63.5322H49.9783V54.5726H59.0653V45.6129H68.1522C71.0435 45.6129 73.5218 43.1693 73.5218 40.3185C73.5218 37.4677 71.0435 35.0242 68.1522 35.0242H29.9131" stroke="black" stroke-width="1.5" stroke-miterlimit="10" stroke-linecap="round"/>
<path d="M7.84961 11.8104V19.1411" stroke="black" stroke-width="1.5" stroke-miterlimit="10" stroke-linecap="round"/>
<path d="M11.5656 15.4757H4.13086" stroke="black" stroke-width="1.5" stroke-miterlimit="10" stroke-linecap="round"/>
</g>
<defs>
<clipPath id="clip0">
<rect width="95" height="101" fill="white"/>
</clipPath>
</defs>
</svg>
