<svg width="101" height="41" viewBox="0 0 101 41" fill="none" xmlns="http://www.w3.org/2000/svg">
<path d="M50.7211 40.7486C53.4951 40.7486 55.7439 38.4963 55.7439 35.7179C55.7439 32.9396 53.4951 30.6873 50.7211 30.6873C47.947 30.6873 45.6982 32.9396 45.6982 35.7179C45.6982 38.4963 47.947 40.7486 50.7211 40.7486Z" fill="#F4C201"/>
<path d="M50.7211 25.556C53.4951 25.556 55.7439 23.3037 55.7439 20.5253C55.7439 17.7469 53.4951 15.4946 50.7211 15.4946C47.947 15.4946 45.6982 17.7469 45.6982 20.5253C45.6982 23.3037 47.947 25.556 50.7211 25.556Z" fill="#F4C201"/>
<path d="M50.7211 10.3634C53.4951 10.3634 55.7439 8.11104 55.7439 5.33268C55.7439 2.55431 53.4951 0.302002 50.7211 0.302002C47.947 0.302002 45.6982 2.55431 45.6982 5.33268C45.6982 8.11104 47.947 10.3634 50.7211 10.3634Z" fill="#F4C201"/>
<path d="M65.5385 40.7486C68.3125 40.7486 70.5613 38.4963 70.5613 35.7179C70.5613 32.9396 68.3125 30.6873 65.5385 30.6873C62.7644 30.6873 60.5156 32.9396 60.5156 35.7179C60.5156 38.4963 62.7644 40.7486 65.5385 40.7486Z" fill="#F4C201"/>
<path d="M65.5385 25.556C68.3125 25.556 70.5613 23.3037 70.5613 20.5253C70.5613 17.7469 68.3125 15.4946 65.5385 15.4946C62.7644 15.4946 60.5156 17.7469 60.5156 20.5253C60.5156 23.3037 62.7644 25.556 65.5385 25.556Z" fill="#F4C201"/>
<path d="M65.5385 10.3634C68.3125 10.3634 70.5613 8.11104 70.5613 5.33268C70.5613 2.55431 68.3125 0.302002 65.5385 0.302002C62.7644 0.302002 60.5156 2.55431 60.5156 5.33268C60.5156 8.11104 62.7644 10.3634 65.5385 10.3634Z" fill="#F4C201"/>
<path d="M80.4056 40.7486C83.1797 40.7486 85.4285 38.4963 85.4285 35.7179C85.4285 32.9396 83.1797 30.6873 80.4056 30.6873C77.6316 30.6873 75.3828 32.9396 75.3828 35.7179C75.3828 38.4963 77.6316 40.7486 80.4056 40.7486Z" fill="#F4C201"/>
<path d="M80.4056 25.556C83.1797 25.556 85.4285 23.3037 85.4285 20.5253C85.4285 17.7469 83.1797 15.4946 80.4056 15.4946C77.6316 15.4946 75.3828 17.7469 75.3828 20.5253C75.3828 23.3037 77.6316 25.556 80.4056 25.556Z" fill="#F4C201"/>
<path d="M80.4056 10.3634C83.1797 10.3634 85.4285 8.11104 85.4285 5.33268C85.4285 2.55431 83.1797 0.302002 80.4056 0.302002C77.6316 0.302002 75.3828 2.55431 75.3828 5.33268C75.3828 8.11104 77.6316 10.3634 80.4056 10.3634Z" fill="#F4C201"/>
<path d="M95.2738 40.7486C98.0478 40.7486 100.297 38.4963 100.297 35.7179C100.297 32.9396 98.0478 30.6873 95.2738 30.6873C92.4998 30.6873 90.251 32.9396 90.251 35.7179C90.251 38.4963 92.4998 40.7486 95.2738 40.7486Z" fill="#F4C201"/>
<path d="M95.2738 25.556C98.0478 25.556 100.297 23.3037 100.297 20.5253C100.297 17.7469 98.0478 15.4946 95.2738 15.4946C92.4998 15.4946 90.251 17.7469 90.251 20.5253C90.251 23.3037 92.4998 25.556 95.2738 25.556Z" fill="#F4C201"/>
<path d="M95.2738 10.3634C98.0478 10.3634 100.297 8.11104 100.297 5.33268C100.297 2.55431 98.0478 0.302002 95.2738 0.302002C92.4998 0.302002 90.251 2.55431 90.251 5.33268C90.251 8.11104 92.4998 10.3634 95.2738 10.3634Z" fill="#F4C201"/>
<path opacity="0.3" d="M27.4654 20.5252L7.02246 41V0L27.4654 20.5252Z" fill="#F4C201"/>
<path d="M7.02283 25.556C9.79686 25.556 12.0457 23.3037 12.0457 20.5253C12.0457 17.7469 9.79686 15.4946 7.02283 15.4946C4.2488 15.4946 2 17.7469 2 20.5253C2 23.3037 4.2488 25.556 7.02283 25.556Z" stroke="#3F4242" stroke-width="3" stroke-miterlimit="10"/>
</svg>
