<svg width="131" height="65" viewBox="0 0 131 65" fill="none" xmlns="http://www.w3.org/2000/svg">
<path d="M26.2852 0V6.49567" stroke="#3F4242" stroke-width="2" stroke-miterlimit="10"/>
<path d="M22.9883 3.27295H29.5307" stroke="#3F4242" stroke-width="2" stroke-miterlimit="10"/>
<path d="M127.16 63.2952C128.337 63.2952 129.29 62.3483 129.29 61.1803C129.29 60.0123 128.337 59.0654 127.16 59.0654C125.984 59.0654 125.03 60.0123 125.03 61.1803C125.03 62.3483 125.984 63.2952 127.16 63.2952Z" stroke="#3F4242" stroke-width="2" stroke-miterlimit="10"/>
<path d="M36.9216 52.2053C45.0444 52.2053 51.6293 45.6675 51.6293 37.6027C51.6293 29.5378 45.0444 23 36.9216 23C28.7987 23 22.2139 29.5378 22.2139 37.6027C22.2139 45.6675 28.7987 52.2053 36.9216 52.2053Z" fill="#F9A01B"/>
<path d="M81.4001 52.2053C89.5229 52.2053 96.1078 45.6675 96.1078 37.6027C96.1078 29.5378 89.5229 23 81.4001 23C73.2773 23 66.6924 29.5378 66.6924 37.6027C66.6924 45.6675 73.2773 52.2053 81.4001 52.2053Z" fill="#F9A01B"/>
<path d="M117.321 37.6027C117.321 45.1085 111.19 51.2053 103.613 51.2053C96.0357 51.2053 89.9053 45.1085 89.9053 37.6027C89.9053 30.0969 96.0357 24 103.613 24C111.19 24 117.321 30.0969 117.321 37.6027Z" stroke="#3F4242" stroke-width="2" stroke-miterlimit="10"/>
<path d="M28.4154 37.6027C28.4154 45.1085 22.285 51.2053 14.7077 51.2053C7.13038 51.2053 1 45.1085 1 37.6027C1 30.0969 7.13038 24 14.7077 24C22.285 24 28.4154 30.0969 28.4154 37.6027Z" stroke="#3F4242" stroke-width="2" stroke-miterlimit="10"/>
<path d="M72.8939 37.6027C72.8939 45.1085 66.7635 51.2053 59.1862 51.2053C51.6089 51.2053 45.4785 45.1085 45.4785 37.6027C45.4785 30.0969 51.6089 24 59.1862 24C66.7635 24 72.8939 30.0969 72.8939 37.6027Z" stroke="#3F4242" stroke-width="2" stroke-miterlimit="10"/>
</svg>
